<?xml version="1.0" encoding="utf-8"?>
<!-- Generator: Adobe Illustrator 27.5.0, SVG Export Plug-In . SVG Version: 6.00 Build 0)  -->
<svg version="1.1" xmlns="http://www.w3.org/2000/svg" xmlns:xlink="http://www.w3.org/1999/xlink" x="0px" y="0px"
	 viewBox="0 0 3710 3710" style="enable-background:new 0 0 3710 3710;" xml:space="preserve">
<g id="Background">
	<g>
		<g>
			<rect style="fill:#FFFFFF;" width="3710" height="3710"/>
		</g>
	</g>
</g>
<g id="Illustration">
	<g>
		<linearGradient id="SVGID_1_" gradientUnits="userSpaceOnUse" x1="3601.4109" y1="4076.8008" x2="1123.3398" y2="999.192">
			<stop  offset="0" style="stop-color:#DAE3FE"/>
			<stop  offset="1" style="stop-color:#E9EFFD"/>
		</linearGradient>
		<path style="fill:url(#SVGID_1_);" d="M2919.678,2863.103c-56.92,59.923-110.778,98.567-153.33,129.098
			c-500.187,358.89-1092.041,254.275-1217.827,228.727c-185.746-37.726-544.789-110.649-804.371-415.912
			c-392.725-461.837-331.572-1189.448-26.948-1669.755c55.721-87.856,350.053-575.479,948.282-653.678
			c362.042-47.325,784.066,48.124,1089.685,304.172C3396.689,1323.222,3351.019,2409,2919.678,2863.103z"/>
		<g>
			<g>
				
					<linearGradient id="SVGID_00000015312499950076533720000006991968944308365210_" gradientUnits="userSpaceOnUse" x1="1851.4592" y1="3350.5081" x2="1811.1996" y2="2553.3752">
					<stop  offset="0" style="stop-color:#09005D"/>
					<stop  offset="1" style="stop-color:#1A0F91"/>
				</linearGradient>
				<polygon style="fill:url(#SVGID_00000015312499950076533720000006991968944308365210_);" points="1515.022,2445.552 
					1448.156,3045.243 2223.927,3045.243 2122.882,2445.552 				"/>
				
					<linearGradient id="SVGID_00000102539999868967803490000016801043227759329186_" gradientUnits="userSpaceOnUse" x1="1853.9651" y1="3049.7178" x2="1483.5792" y2="3862.9553">
					<stop  offset="0" style="stop-color:#09005D"/>
					<stop  offset="1" style="stop-color:#1A0F91"/>
				</linearGradient>
				<path style="fill:url(#SVGID_00000102539999868967803490000016801043227759329186_);" d="M2391.027,3167.939H1255.635
					c-30.846,0-54.009-21.958-48.045-45.545l14.569-57.618c4.381-17.328,23.444-30.049,46.086-30.756l1094.56-34.155
					c23.655-0.738,44.6,11.818,49.753,29.826l26.264,91.773C2445.645,3145.307,2422.371,3167.939,2391.027,3167.939z"/>
				
					<linearGradient id="SVGID_00000131353368119324339450000006319814534302758314_" gradientUnits="userSpaceOnUse" x1="541.8258" y1="1885.3505" x2="3176.009" y2="1885.3505">
					<stop  offset="0" style="stop-color:#09005D"/>
					<stop  offset="1" style="stop-color:#1A0F91"/>
				</linearGradient>
				<path style="fill:url(#SVGID_00000131353368119324339450000006319814534302758314_);" d="M541.826,1151.913V2525.36
					c0,112.984,90.035,205.379,202.982,208.291c501.65,12.936,1793.71,44.302,2271.248,37.262
					c82.076-1.21,148.565-66.89,150.934-148.941c9.208-319.07,24.163-1086.328-31.181-1442.536
					c-11.655-75.014-74.973-131.107-150.848-133.534c-420.32-13.446-1817.767-56.143-2295.081-45.423
					C607.558,1002.328,541.826,1069.572,541.826,1151.913z"/>
				
					<linearGradient id="SVGID_00000078730168061448164830000008867473895670931612_" gradientUnits="userSpaceOnUse" x1="1602.0171" y1="2213.4199" x2="2728.6072" y2="402.8296">
					<stop  offset="0" style="stop-color:#4F52FF"/>
					<stop  offset="1" style="stop-color:#4042E2"/>
				</linearGradient>
				<path style="fill:url(#SVGID_00000078730168061448164830000008867473895670931612_);" d="M628.006,1145.228v1304.869
					c0,65.967,52.953,119.718,118.912,120.704l2200.436,32.899c65.394,0.978,118.997-51.634,119.241-117.034l4.454-1293.211
					c0.174-46.763-37.081-85.079-83.831-86.216l-2263.852-55.079C671.08,1050.887,628.006,1092.925,628.006,1145.228z"/>
				<path style="fill:#91B3FA;" d="M3086.642,2656.889c-0.023,0-0.047,0-0.07,0l-2458.634-49.771
					c-1.88-0.04-3.373-1.593-3.337-3.475c0.039-1.879,1.661-3.408,3.473-3.335l2458.634,49.771c1.88,0.04,3.373,1.593,3.336,3.475
					C3090.007,2655.409,3088.491,2656.889,3086.642,2656.889z"/>
				<path style="fill:#91B3FA;" d="M1866.837,3049.334c-1.857,0-3.375-1.493-3.403-3.355c-0.026-1.882,1.475-3.428,3.355-3.455
					l46.903-0.685c0.017,0,0.033,0,0.052,0c1.857,0,3.375,1.493,3.403,3.355c0.026,1.882-1.475,3.428-3.355,3.455l-46.903,0.685
					C1866.871,3049.334,1866.855,3049.334,1866.837,3049.334z"/>
				<path style="fill:#91B3FA;" d="M1249.625,3135.879c-0.18,0-0.361-0.013-0.542-0.043c-1.857-0.296-3.122-2.042-2.825-3.897
					l6.692-41.907c3.572-22.378,22.61-38.861,45.269-39.194l497.479-7.275c1.769,0.076,3.427,1.473,3.455,3.355
					c0.027,1.879-1.475,3.428-3.355,3.455l-497.479,7.275c-19.343,0.282-35.594,14.351-38.645,33.455l-6.692,41.907
					C1252.714,3134.685,1251.268,3135.879,1249.625,3135.879z"/>
			</g>
			
				<ellipse transform="matrix(0.1602 -0.9871 0.9871 0.1602 -482.2587 1959.9399)" style="fill:#91B3FA;" cx="910.687" cy="1263.384" rx="41.185" ry="41.185"/>
			
				<ellipse transform="matrix(0.1602 -0.9871 0.9871 0.1602 -697.3643 2142.9526)" style="fill:#FFFFFF;" cx="910.687" cy="1481.303" rx="41.185" ry="41.185"/>
			
				<ellipse transform="matrix(0.1602 -0.9871 0.9871 0.1602 -912.4699 2325.9653)" style="fill:#FFFFFF;" cx="910.687" cy="1699.223" rx="41.185" ry="41.185"/>
			
				<ellipse transform="matrix(0.9239 -0.3827 0.3827 0.9239 -664.3368 494.4389)" style="fill:#FFFFFF;" cx="910.687" cy="1917.142" rx="41.185" ry="41.185"/>
			<circle style="fill:#FFFFFF;" cx="910.687" cy="2158.896" r="41.185"/>
			<circle style="fill:#FFFFFF;" cx="910.687" cy="2376.816" r="41.185"/>
			<path style="fill:#91B3FA;" d="M1096.599,2556.305h-38.785c-2.453,0-4.442-1.989-4.442-4.442l0-1445.047
				c0-2.453,1.989-4.442,4.442-4.442h38.785c2.453,0,4.442,1.989,4.442,4.442v1445.047
				C1101.041,2554.316,1099.052,2556.305,1096.599,2556.305z"/>
			<g style="opacity:0.6;">
				<path style="fill:#91B3FA;" d="M2380.281,1415.632H1173.584c-2.453,0-4.442-1.989-4.442-4.442v-38.785
					c0-2.453,1.989-4.442,4.442-4.442h1206.698c2.453,0,4.442,1.989,4.442,4.442v38.785
					C2384.723,1413.643,2382.735,1415.632,2380.281,1415.632z"/>
				<path style="fill:#91B3FA;" d="M1615.293,1570.158h-441.709c-2.453,0-4.442-1.989-4.442-4.442v-38.785
					c0-2.453,1.989-4.442,4.442-4.442h441.709c2.454,0,4.443,1.989,4.443,4.442v38.785
					C1619.735,1568.169,1617.746,1570.158,1615.293,1570.158z"/>
				<path style="fill:#91B3FA;" d="M2909.19,1875.592h-441.709c-2.453,0-4.442-1.989-4.442-4.442v-38.785
					c0-2.453,1.989-4.442,4.442-4.442h441.709c2.453,0,4.442,1.989,4.442,4.442v38.785
					C2913.632,1873.603,2911.643,1875.592,2909.19,1875.592z"/>
				<path style="fill:#91B3FA;" d="M2309.585,2027.237h-441.709c-2.453,0-4.442-1.989-4.442-4.442v-38.785
					c0-2.453,1.989-4.442,4.442-4.442h441.709c2.453,0,4.442,1.989,4.442,4.442v38.785
					C2314.027,2025.248,2312.038,2027.237,2309.585,2027.237z"/>
				<path style="fill:#91B3FA;" d="M1967.142,2165.381h-269.19c-2.453,0-4.442-1.989-4.442-4.442v-38.785
					c0-2.453,1.989-4.442,4.442-4.442h269.19c2.453,0,4.442,1.989,4.442,4.442v38.785
					C1971.584,2163.392,1969.596,2165.381,1967.142,2165.381z"/>
				<path style="fill:#91B3FA;" d="M1459.798,2291.366h-269.19c-2.453,0-4.442-1.989-4.442-4.442v-38.785
					c0-2.453,1.989-4.442,4.442-4.442h269.19c2.453,0,4.442,1.989,4.442,4.442v38.785
					C1464.241,2289.377,1462.252,2291.366,1459.798,2291.366z"/>
				<path style="fill:#91B3FA;" d="M1632.318,2165.381h-441.709c-2.453,0-4.442-1.989-4.442-4.442v-38.785
					c0-2.453,1.989-4.442,4.442-4.442h441.709c2.453,0,4.442,1.989,4.442,4.442v38.785
					C1636.76,2163.392,1634.771,2165.381,1632.318,2165.381z"/>
				<path style="fill:#91B3FA;" d="M2772.99,2165.381h-735.674c-2.453,0-4.442-1.989-4.442-4.442v-38.785
					c0-2.453,1.989-4.442,4.442-4.442h735.674c2.453,0,4.442,1.989,4.442,4.442v38.785
					C2777.433,2163.392,2775.444,2165.381,2772.99,2165.381z"/>
				<path style="fill:#91B3FA;" d="M2852.44,1723.057h-643.739c-2.454,0-4.443-1.989-4.443-4.442v-38.785
					c0-2.453,1.989-4.442,4.443-4.442h643.739c2.453,0,4.442,1.989,4.442,4.442v38.785
					C2856.883,1721.069,2854.894,1723.057,2852.44,1723.057z"/>
				<path style="fill:#91B3FA;" d="M1817.323,2027.237h-643.739c-2.453,0-4.442-1.989-4.442-4.442v-38.785
					c0-2.453,1.989-4.442,4.442-4.442h643.739c2.453,0,4.442,1.989,4.442,4.442v38.785
					C1821.765,2025.248,1819.776,2027.237,1817.323,2027.237z"/>
				<path style="fill:#91B3FA;" d="M2650.411,1570.158h-966.078c-2.453,0-4.442-1.989-4.442-4.442v-38.785
					c0-2.453,1.989-4.442,4.442-4.442h966.078c2.454,0,4.442,1.989,4.442,4.442v38.785
					C2654.853,1568.169,2652.864,1570.158,2650.411,1570.158z"/>
				<path style="fill:#91B3FA;" d="M2139.662,1723.057h-966.078c-2.453,0-4.442-1.989-4.442-4.442v-38.785
					c0-2.453,1.989-4.442,4.442-4.442h966.078c2.454,0,4.442,1.989,4.442,4.442v38.785
					C2144.104,1721.069,2142.115,1723.057,2139.662,1723.057z"/>
				<path style="fill:#91B3FA;" d="M2380.281,1875.592H1173.584c-2.453,0-4.442-1.989-4.442-4.442v-38.785
					c0-2.453,1.989-4.442,4.442-4.442h1206.698c2.453,0,4.442,1.989,4.442,4.442v38.785
					C2384.723,1873.603,2382.735,1875.592,2380.281,1875.592z"/>
			</g>
			<g>
				<path style="fill:#91B3FA;" d="M1296.968,1286.467l-50.753-37.627l0.999-11.849l56.323-28.448l-1.44,17.089l-38.826,18.679
					l35.138,25.068L1296.968,1286.467z"/>
				<path style="fill:#91B3FA;" d="M1375.167,1197.219l-50.753,107.547l-19.44-1.639l50.749-107.547L1375.167,1197.219z"/>
				<path style="fill:#91B3FA;" d="M1377.547,1276.049l39.066-18.813l-35.379-24.934l1.441-17.089l50.766,37.475l-0.999,11.849
					l-56.335,28.6L1377.547,1276.049z"/>
			</g>
			<g>
				<path style="fill:#91B3FA;" d="M1253.293,2454.295l-50.753-37.627l0.999-11.849l56.323-28.448l-1.441,17.089l-38.825,18.679
					l35.138,25.068L1253.293,2454.295z"/>
				<path style="fill:#91B3FA;" d="M1331.492,2365.047l-50.753,107.547l-19.44-1.639l50.749-107.547L1331.492,2365.047z"/>
				<path style="fill:#91B3FA;" d="M1333.872,2443.877l39.066-18.813l-35.379-24.934l1.44-17.089l50.766,37.475l-0.999,11.849
					l-56.335,28.6L1333.872,2443.877z"/>
			</g>
		</g>
		<g>
			<g>
				<g style="opacity:0.24;">
					
						<linearGradient id="SVGID_00000086692869634376771280000003177459308983741850_" gradientUnits="userSpaceOnUse" x1="2379.5911" y1="992.2656" x2="2395.8521" y2="992.2656">
						<stop  offset="0" style="stop-color:#FF928E"/>
						<stop  offset="1" style="stop-color:#FE7062"/>
					</linearGradient>
					<path style="fill:url(#SVGID_00000086692869634376771280000003177459308983741850_);" d="M2389.263,980.515
						c-2.873-0.027-5.541,1.828-6.42,4.717c-1.045,3.439-2.048,6.896-3.01,10.367c-0.979,3.537,1.096,7.2,4.633,8.181
						c3.541,0.966,7.199-1.095,8.18-4.632c0.932-3.368,1.904-6.715,2.917-10.05c1.068-3.511-0.915-7.224-4.427-8.291
						C2390.513,980.615,2389.883,980.521,2389.263,980.515z"/>
					
						<linearGradient id="SVGID_00000154423232088952737000000008069659431778230699_" gradientUnits="userSpaceOnUse" x1="2364.0916" y1="1286.8685" x2="3011.2351" y2="1286.8685">
						<stop  offset="0" style="stop-color:#FF928E"/>
						<stop  offset="1" style="stop-color:#FE7062"/>
					</linearGradient>
					<path style="fill:url(#SVGID_00000154423232088952737000000008069659431778230699_);" d="M2379.629,1024.467
						c3.606,0.691,5.968,4.175,5.277,7.78c-1.304,6.808-2.457,13.754-3.425,20.644c-0.51,3.636-3.86,6.167-7.508,5.657
						c-3.634-0.509-6.167-3.87-5.657-7.506c1-7.108,2.188-14.273,3.534-21.297c0.613-3.204,3.433-5.426,6.583-5.396
						C2378.828,1024.353,2379.228,1024.391,2379.629,1024.467z M2371.866,1079.7c3.666,0.217,6.46,3.365,6.243,7.028
						c-0.41,6.93-0.653,13.967-0.724,20.919c-0.037,3.671-3.04,6.616-6.71,6.581l-0.003,0c-3.671-0.037-6.617-3.043-6.58-6.712
						c0.072-7.171,0.323-14.429,0.746-21.573c0.212-3.553,3.174-6.287,6.693-6.253
						C2371.641,1079.691,2371.754,1079.694,2371.866,1079.7z M2378.392,1141.652c0.479,6.941,1.136,13.952,1.951,20.838
						c0.43,3.648-2.175,6.952-5.82,7.381c-3.677,0.441-6.953-2.174-7.383-5.819c-0.84-7.102-1.517-14.328-2.011-21.482
						c-0.253-3.664,2.511-6.837,6.174-7.09c0.176-0.012,0.352-0.017,0.529-0.016
						C2375.266,1135.497,2378.152,1138.168,2378.392,1141.652z M2385.677,1196.065c1.36,6.795,2.911,13.659,4.612,20.409
						c0.896,3.561-1.262,7.173-4.823,8.068c-3.569,0.901-7.174-1.261-8.069-4.82c-1.753-6.96-3.354-14.04-4.757-21.049
						c-0.72-3.6,1.614-7.102,5.215-7.82c0.461-0.095,0.921-0.137,1.373-0.133
						C2382.306,1190.749,2385.049,1192.928,2385.677,1196.065z M2399.924,1249.074c2.231,6.568,4.664,13.173,7.226,19.635
						c1.354,3.411-0.316,7.274-3.728,8.628c-3.415,1.354-7.278-0.315-8.629-3.729c-2.643-6.663-5.153-13.479-7.456-20.255
						c-1.181-3.475,0.678-7.25,4.153-8.433c0.731-0.248,1.474-0.362,2.204-0.355
						C2396.438,1244.591,2398.991,1246.328,2399.924,1249.074z M2420.958,1299.795c3.075,6.229,6.351,12.472,9.739,18.556
						c1.786,3.209,0.634,7.257-2.573,9.044c-3.203,1.776-7.254,0.629-9.04-2.573c-3.495-6.278-6.876-12.718-10.047-19.141
						c-1.624-3.292-0.272-7.279,3.02-8.905c0.965-0.476,1.99-0.698,2.999-0.688
						C2417.484,1296.111,2419.812,1297.472,2420.958,1299.795z M2448.429,1347.379c3.857,5.778,7.912,11.538,12.056,17.13
						c2.187,2.949,1.569,7.111-1.381,9.298c-2.949,2.184-7.111,1.569-9.298-1.381c-4.273-5.763-8.457-11.708-12.434-17.663
						c-2.039-3.055-1.217-7.181,1.837-9.221c1.152-0.769,2.458-1.13,3.748-1.118
						C2445.082,1344.444,2447.16,1345.479,2448.429,1347.379z M2481.821,1390.996c4.577,5.236,9.341,10.425,14.158,15.421
						c2.549,2.643,2.473,6.849-0.17,9.4c-2.643,2.548-6.85,2.469-9.398-0.17c-4.969-5.151-9.881-10.503-14.602-15.907
						c-2.414-2.762-2.132-6.964,0.633-9.378c1.278-1.115,2.862-1.656,4.434-1.641
						C2478.707,1388.738,2480.521,1389.508,2481.821,1390.996z M2520.543,1429.941c5.21,4.606,10.596,9.139,16.012,13.469
						c2.867,2.291,3.332,6.474,1.039,9.343c-2.293,2.868-6.479,3.334-9.344,1.038c-5.584-4.467-11.14-9.14-16.515-13.89
						c-2.75-2.43-3.009-6.632-0.577-9.382c1.329-1.504,3.186-2.262,5.045-2.244
						C2517.748,1428.288,2519.295,1428.837,2520.543,1429.941z M2563.932,1463.578c5.758,3.897,11.679,7.695,17.602,11.29
						c3.138,1.904,4.138,5.993,2.233,9.132c-1.906,3.137-5.994,4.134-9.13,2.232c-6.111-3.709-12.218-7.627-18.155-11.644
						c-3.041-2.059-3.837-6.189-1.78-9.232c1.298-1.917,3.42-2.941,5.574-2.921
						C2561.538,1462.448,2562.81,1462.819,2563.932,1463.578z M3010.445,1488.819c1.735,3.236,0.517,7.265-2.717,9
						c-6.337,3.395-12.823,6.669-19.278,9.728c-3.317,1.574-7.281,0.157-8.852-3.16c-1.573-3.317-0.157-7.28,3.16-8.854
						c6.256-2.965,12.544-6.138,18.687-9.432c1.02-0.546,2.117-0.798,3.198-0.788
						C3006.992,1485.334,3009.257,1486.603,3010.445,1488.819z M2611.275,1491.34c6.199,3.115,12.556,6.114,18.896,8.916
						c3.359,1.484,4.878,5.409,3.395,8.765c-1.484,3.361-5.416,4.874-8.766,3.393c-6.54-2.886-13.099-5.981-19.495-9.197
						c-3.279-1.648-4.601-5.644-2.953-8.924c1.177-2.342,3.551-3.688,6.007-3.664
						C2609.341,1490.638,2610.337,1490.869,2611.275,1491.34z M2960.035,1512.709c1.299,3.432-0.429,7.27-3.863,8.569
						c-6.687,2.534-13.545,4.936-20.383,7.14c-3.495,1.13-7.24-0.791-8.366-4.286c-1.126-3.495,0.792-7.239,4.286-8.367
						c6.627-2.136,13.275-4.465,19.756-6.916c0.794-0.302,1.613-0.442,2.415-0.435
						C2956.54,1508.439,2959.036,1510.072,2960.035,1512.709z M2661.78,1512.731c6.565,2.286,13.252,4.436,19.877,6.384
						c3.522,1.035,5.536,4.732,4.502,8.252c-1.037,3.522-4.739,5.53-8.253,4.502c-6.834-2.01-13.733-4.225-20.504-6.588
						c-3.465-1.208-5.296-4.996-4.086-8.465c0.963-2.764,3.566-4.486,6.337-4.46
						C2660.359,1512.365,2661.075,1512.486,2661.78,1512.731z M2906.94,1529.837c0.841,3.574-1.373,7.151-4.947,7.993
						c-6.994,1.647-14.104,3.135-21.135,4.427c-3.611,0.682-7.075-1.724-7.739-5.336c-0.663-3.611,1.727-7.075,5.336-7.737
						c6.817-1.255,13.712-2.698,20.493-4.293c0.533-0.127,1.066-0.184,1.591-0.179
						C2903.529,1524.739,2906.225,1526.797,2906.94,1529.837z M2714.631,1527.386c6.769,1.409,13.693,2.671,20.583,3.752
						c3.627,0.569,6.104,3.971,5.535,7.598c-0.566,3.625-3.961,6.095-7.597,5.536c-7.105-1.116-14.249-2.42-21.232-3.873
						c-3.593-0.748-5.9-4.268-5.152-7.862c0.658-3.159,3.455-5.321,6.563-5.292
						C2713.76,1527.251,2714.195,1527.296,2714.631,1527.386z M2852.068,1539.929c0.373,3.652-2.284,6.915-5.937,7.287
						c-6.243,0.64-12.577,1.151-18.82,1.525l-2.716,0.154c-3.677,0.152-6.792-2.625-6.984-6.293
						c-0.191-3.665,2.626-6.791,6.292-6.982l2.609-0.149c6.063-0.364,12.208-0.86,18.268-1.478c0.251-0.027,0.499-0.038,0.746-0.035
						C2848.867,1533.989,2851.721,1536.528,2852.068,1539.929z M2768.981,1535.042c6.927,0.523,13.959,0.875,20.9,1.053
						c3.67,0.094,6.569,3.144,6.474,6.815c-0.093,3.671-3.173,6.583-6.814,6.476c-7.159-0.184-14.412-0.549-21.557-1.087
						c-3.661-0.274-6.406-3.465-6.13-7.126c0.264-3.514,3.213-6.181,6.685-6.148
						C2768.687,1535.025,2768.833,1535.033,2768.981,1535.042z"/>
					
						<linearGradient id="SVGID_00000005246057505522586950000011510221140043152518_" gradientUnits="userSpaceOnUse" x1="3027.9397" y1="1471.3232" x2="3050.0906" y2="1471.3232">
						<stop  offset="0" style="stop-color:#FF928E"/>
						<stop  offset="1" style="stop-color:#FE7062"/>
					</linearGradient>
					<path style="fill:url(#SVGID_00000005246057505522586950000011510221140043152518_);" d="M3043.5,1461.737
						c-1.309-0.012-2.634,0.36-3.799,1.154c-2.88,1.961-5.785,3.892-8.719,5.783c-3.083,1.991-3.971,6.106-1.981,9.189
						c1.991,3.088,6.103,3.976,9.19,1.982c3.025-1.951,6.022-3.943,8.993-5.967c3.034-2.067,3.818-6.201,1.751-9.235
						C3047.665,1462.772,3045.604,1461.757,3043.5,1461.737z"/>
				</g>
				<g style="opacity:0.24;">
					
						<linearGradient id="SVGID_00000175308656692070882120000004985545649825138855_" gradientUnits="userSpaceOnUse" x1="3215.7839" y1="1197.0179" x2="3231.1643" y2="1197.0179">
						<stop  offset="0" style="stop-color:#FF928E"/>
						<stop  offset="1" style="stop-color:#FE7062"/>
					</linearGradient>
					<path style="fill:url(#SVGID_00000175308656692070882120000004985545649825138855_);" d="M3224.572,1185.158
						c-3.162-0.03-5.988,2.208-6.588,5.424c-0.643,3.437-1.328,6.855-2.053,10.263c-0.764,3.591,1.528,7.122,5.119,7.885
						c3.596,0.769,7.118-1.528,7.884-5.119c0.747-3.516,1.453-7.044,2.116-10.584c0.675-3.612-1.703-7.082-5.312-7.757
						C3225.346,1185.198,3224.955,1185.161,3224.572,1185.158z"/>
					
						<linearGradient id="SVGID_00000083810164354894222090000000111470705671141284_" gradientUnits="userSpaceOnUse" x1="2573.4312" y1="919.9727" x2="3238.3701" y2="919.9727">
						<stop  offset="0" style="stop-color:#FF928E"/>
						<stop  offset="1" style="stop-color:#FE7062"/>
					</linearGradient>
					<path style="fill:url(#SVGID_00000083810164354894222090000000111470705671141284_);" d="M2809.792,675.203
						c3.671,0.064,6.595,3.093,6.531,6.764c-0.065,3.65-3.063,6.565-6.708,6.53l-0.055-0.001l-3.835-0.055
						c-5.544-0.053-11.188,0.006-16.776,0.17c-3.652,0.077-6.731-2.775-6.841-6.447c-0.109-3.67,2.777-6.733,6.447-6.84
						c5.759-0.172,11.578-0.231,17.308-0.177L2809.792,675.203z M2844.25,677.194c7.028,0.687,14.121,1.554,21.082,2.578
						c3.632,0.533,6.144,3.912,5.609,7.542c-0.535,3.634-3.885,6.143-7.543,5.61c-6.748-0.991-13.626-1.832-20.441-2.499
						c-3.655-0.358-6.326-3.61-5.969-7.262c0.338-3.456,3.264-6.032,6.67-6C2843.855,677.165,2844.052,677.174,2844.25,677.194z
						 M2761.438,683.576c0.393,3.652-2.246,6.929-5.897,7.323c-6.789,0.731-13.666,1.639-20.437,2.697
						c-3.622,0.565-7.027-1.913-7.595-5.54c-0.567-3.626,1.914-7.027,5.541-7.593c6.981-1.092,14.068-2.026,21.067-2.783
						c0.264-0.027,0.525-0.04,0.782-0.038C2758.224,677.674,2761.071,680.193,2761.438,683.576z M2899.247,686.148
						c6.881,1.579,13.805,3.347,20.584,5.255c3.535,0.996,5.591,4.667,4.595,8.202c-0.995,3.534-4.667,5.595-8.201,4.595
						c-6.568-1.851-13.281-3.565-19.949-5.094c-3.577-0.821-5.814-4.386-4.993-7.967c0.712-3.099,3.482-5.191,6.536-5.162
						C2898.289,685.982,2898.769,686.039,2899.247,686.148z M2707.182,692.075c0.854,3.57-1.35,7.155-4.919,8.01
						c-6.669,1.593-13.372,3.371-19.92,5.277c-3.527,1.029-7.213-1.001-8.241-4.524c-1.025-3.524,1-7.213,4.524-8.24
						c6.754-1.966,13.668-3.799,20.544-5.442c0.542-0.13,1.082-0.19,1.614-0.185C2703.766,687,2706.457,689.045,2707.182,692.075z
						 M2952.631,702.066c6.593,2.438,13.223,5.072,19.703,7.831c3.378,1.439,4.951,5.344,3.512,8.721
						c-1.44,3.379-5.35,4.954-8.72,3.511c-6.284-2.676-12.71-5.231-19.103-7.591c-3.443-1.275-5.203-5.098-3.93-8.542
						c0.999-2.704,3.571-4.37,6.297-4.344C2951.136,701.66,2951.892,701.795,2952.631,702.066z M2654.459,707.42
						c1.304,3.432-0.423,7.268-3.855,8.574c-6.406,2.432-12.823,5.05-19.072,7.782c-3.366,1.461-7.283-0.069-8.755-3.427
						c-1.47-3.364,0.064-7.283,3.428-8.755c6.45-2.819,13.071-5.52,19.681-8.032c0.797-0.301,1.615-0.441,2.42-0.434
						C2650.964,703.154,2653.459,704.785,2654.459,707.42z M3003.515,724.663c6.222,3.251,12.468,6.711,18.563,10.287
						c3.167,1.856,4.228,5.93,2.372,9.095c-1.857,3.168-5.929,4.231-9.097,2.37c-5.91-3.465-11.965-6.818-17.994-9.969
						c-3.253-1.7-4.513-5.716-2.813-8.97c1.197-2.289,3.541-3.594,5.959-3.571C3001.522,723.915,3002.552,724.161,3003.515,724.663z
						 M2604.14,729.388c1.735,3.236,0.516,7.265-2.72,8.997c-6.02,3.225-12.051,6.645-17.924,10.164
						c-3.147,1.891-7.231,0.864-9.118-2.283c-1.887-3.15-0.865-7.232,2.282-9.119c6.058-3.632,12.276-7.156,18.482-10.481
						c1.02-0.546,2.116-0.798,3.196-0.788C2600.688,725.901,2602.954,727.169,2604.14,729.388z M3051.133,753.558
						c5.779,4.03,11.537,8.255,17.115,12.558c2.907,2.242,3.446,6.417,1.202,9.325c-2.242,2.906-6.416,3.439-9.322,1.202
						c-5.411-4.174-10.997-8.273-16.601-12.184c-3.012-2.099-3.749-6.242-1.649-9.255c1.306-1.87,3.398-2.862,5.522-2.842
						C3048.692,752.375,3049.993,752.763,3051.133,753.558z M3094.722,788.261c5.223,4.729,10.404,9.652,15.398,14.63
						c2.599,2.592,2.604,6.802,0.012,9.402c-2.593,2.595-6.801,2.603-9.4,0.013c-4.842-4.832-9.866-9.605-14.932-14.19
						c-2.722-2.461-2.931-6.666-0.467-9.388c1.326-1.465,3.159-2.203,4.994-2.185
						C3091.896,786.558,3093.466,787.125,3094.722,788.261z M3133.581,828.21c4.591,5.361,9.109,10.903,13.428,16.475
						c2.25,2.901,1.722,7.076-1.179,9.326c-2.895,2.247-7.076,1.721-9.326-1.18c-4.188-5.401-8.57-10.776-13.02-15.972
						c-2.388-2.791-2.063-6.986,0.725-9.374c1.271-1.087,2.832-1.612,4.384-1.597
						C3130.445,825.905,3132.281,826.694,3133.581,828.21z M3167.074,872.778c3.876,5.908,7.656,11.984,11.23,18.059
						c1.862,3.162,0.807,7.236-2.356,9.1c-3.165,1.86-7.239,0.806-9.1-2.359c-3.465-5.888-7.129-11.78-10.888-17.511
						c-2.014-3.066-1.157-7.187,1.912-9.202c1.142-0.75,2.431-1.101,3.702-1.089C3163.718,869.797,3165.812,870.85,3167.074,872.778
						z M3194.627,921.271c3.088,6.351,6.06,12.868,8.833,19.366c1.441,3.375-0.127,7.282-3.504,8.722
						c-3.377,1.438-7.281-0.129-8.723-3.504c-2.688-6.296-5.569-12.613-8.562-18.772c-1.607-3.302-0.23-7.277,3.072-8.885
						c0.955-0.463,1.967-0.68,2.964-0.67C3191.148,917.551,3193.487,918.926,3194.627,921.271z M3215.737,972.891
						c2.238,6.661,4.349,13.49,6.269,20.295c0.997,3.534-1.059,7.206-4.591,8.204c-3.536,1-7.208-1.058-8.204-4.591
						c-1.863-6.598-3.907-13.217-6.077-19.675c-1.169-3.48,0.705-7.249,4.185-8.418c0.722-0.242,1.458-0.355,2.18-0.348
						C3212.253,968.384,3214.811,970.133,3215.737,972.891z M3230.053,1026.738c1.371,6.916,2.591,13.958,3.625,20.931
						c0.537,3.629-1.969,7.01-5.601,7.55c-3.644,0.526-7.012-1.97-7.55-5.603c-1.003-6.758-2.184-13.587-3.515-20.292
						c-0.714-3.6,1.626-7.099,5.227-7.813c0.458-0.092,0.914-0.133,1.364-0.129
						C3226.686,1021.411,3229.431,1023.595,3230.053,1026.738z M3237.403,1081.966c0.099,1.442,0.194,2.884,0.28,4.328
						c0.335,5.62,0.565,11.304,0.686,16.89c0.078,3.67-2.833,6.709-6.503,6.788c-3.639,0.089-6.709-2.834-6.789-6.504
						c-0.115-5.418-0.34-10.93-0.664-16.381c-0.085-1.403-0.174-2.804-0.271-4.203c-0.253-3.664,2.511-6.837,6.173-7.09
						c0.177-0.012,0.354-0.017,0.528-0.016C3234.277,1075.812,3237.162,1078.482,3237.403,1081.966z M3231.505,1130.682
						c3.665,0.208,6.467,3.349,6.258,7.014c-0.4,7.054-0.979,14.179-1.721,21.174c-0.387,3.65-3.637,6.296-7.309,5.91
						c-3.651-0.385-6.297-3.658-5.91-7.308c0.718-6.786,1.28-13.693,1.668-20.531c0.201-3.558,3.167-6.303,6.694-6.269
						C3231.291,1130.672,3231.398,1130.676,3231.505,1130.682z"/>
					
						<linearGradient id="SVGID_00000021808546583179167070000010743556559851873722_" gradientUnits="userSpaceOnUse" x1="2536.2256" y1="764.7531" x2="2558.0938" y2="764.7531">
						<stop  offset="0" style="stop-color:#FF928E"/>
						<stop  offset="1" style="stop-color:#FE7062"/>
					</linearGradient>
					<path style="fill:url(#SVGID_00000021808546583179167070000010743556559851873722_);" d="M2551.505,754.966
						c-1.357-0.013-2.729,0.387-3.918,1.235c-2.928,2.088-5.83,4.218-8.705,6.378c-2.935,2.203-3.528,6.37-1.324,9.307
						c2.206,2.933,6.37,3.527,9.307,1.322c2.788-2.093,5.601-4.156,8.443-6.183c2.988-2.132,3.683-6.282,1.551-9.271
						C2555.575,755.952,2553.557,754.986,2551.505,754.966z"/>
				</g>
				<g>
					
						<linearGradient id="SVGID_00000130612071584824436860000014605565623969397377_" gradientUnits="userSpaceOnUse" x1="3168.0737" y1="455.9429" x2="2665.031" y2="1361.42">
						<stop  offset="0" style="stop-color:#FF928E"/>
						<stop  offset="1" style="stop-color:#FE7062"/>
					</linearGradient>
					<path style="fill:url(#SVGID_00000130612071584824436860000014605565623969397377_);" d="M2522.77,932.88
						c-1.409,1.696-1.589,4.098-0.447,5.984l32.595,53.787c-13.14,26.269-22.186,54.821-26.364,84.756l-57.299,25.832
						c-2.01,0.906-3.223,2.988-3.021,5.183l6.891,75.123c0.201,2.196,1.773,4.022,3.914,4.546l61.043,14.976
						c9.553,28.676,23.643,55.107,41.343,78.546l-22.265,58.819c-0.78,2.063-0.167,4.392,1.528,5.802l57.994,48.248
						c1.694,1.41,4.097,1.59,5.982,0.448l53.787-32.596c26.267,13.141,54.82,22.189,84.756,26.365l25.832,57.299
						c0.906,2.011,2.988,3.224,5.182,3.022l75.125-6.891c2.196-0.203,4.021-1.775,4.546-3.915l14.977-61.044
						c28.676-9.553,55.107-23.643,78.545-41.343l58.82,22.266c2.061,0.781,4.392,0.168,5.802-1.528l48.248-57.994
						c1.41-1.694,1.589-4.097,0.448-5.981l-32.596-53.79c13.142-26.266,22.186-54.818,26.364-84.755l57.299-25.832
						c2.01-0.905,3.224-2.987,3.022-5.182l-6.891-75.125c-0.202-2.196-1.773-4.021-3.915-4.546l-61.043-14.975
						c-9.553-28.678-23.643-55.108-41.344-78.547l22.266-58.819c0.781-2.061,0.168-4.391-1.528-5.802l-57.993-48.248
						c-1.695-1.41-4.097-1.589-5.982-0.446l-53.789,32.595c-26.267-13.141-54.82-22.186-84.756-26.364l-25.832-57.3
						c-0.906-2.008-2.986-3.223-5.182-3.021l-75.124,6.892c-2.196,0.201-4.022,1.772-4.546,3.915l-14.977,61.041
						c-28.676,9.554-55.107,23.644-78.545,41.345l-58.819-22.267c-2.063-0.779-4.392-0.165-5.802,1.528L2522.77,932.88z"/>
					<path style="fill:#FFFFFF;" d="M2812.746,1044.3c19.08,2.995,35.851,13.242,47.222,28.851
						c11.371,15.609,15.983,34.714,12.987,53.794s-13.243,35.851-28.854,47.221c-15.61,11.374-34.715,15.982-53.793,12.987
						c-19.08-2.995-35.849-13.242-47.221-28.851c-11.373-15.612-15.985-34.718-12.987-53.797
						c2.995-19.078,13.243-35.848,28.853-47.221c12.69-9.243,27.687-14.019,43.105-13.873
						C2805.606,1043.445,2809.177,1043.739,2812.746,1044.3z M2837.839,1165.572c13.313-9.699,22.054-24.004,24.61-40.279
						c2.556-16.271-1.378-32.567-11.077-45.88c-9.7-13.313-24.003-22.052-40.276-24.608l0,0
						c-16.268-2.548-32.567,1.376-45.881,11.076c-13.313,9.7-22.053,24.001-24.609,40.276c-2.557,16.271,1.378,32.567,11.077,45.88
						c9.7,13.313,24.002,22.054,40.275,24.61c3.044,0.478,6.089,0.73,9.117,0.759
						C2814.223,1177.531,2827.016,1173.457,2837.839,1165.572z"/>
					<path style="fill:#FFFFFF;" d="M2804.56,932.156c-6.205-0.059-12.452,0.193-18.76,0.772l0,0
						c-2.511,0.231-5.019,0.513-7.517,0.845c-8.784,1.166-17.47,2.956-25.945,5.343c-0.242,0.068-0.483,0.139-0.726,0.206
						c-1.463,0.419-2.921,0.855-4.372,1.312c-1.127,0.352-1.852,1.387-1.864,2.508c-0.002,0.273,0.037,0.549,0.123,0.822
						c0.437,1.404,1.928,2.177,3.332,1.743c12.105-3.793,24.706-6.312,37.455-7.482h-0.001
						c63.275-5.811,121.993,22.153,158.299,68.993c18.729,24.163,31.49,53.345,35.837,85.522c0.345,2.553,0.637,5.133,0.875,7.725
						c0.567,6.174,0.818,12.328,0.759,18.446c-0.396,41.154-14.812,80.594-41.489,112.662
						c-30.644,36.833-73.796,59.528-121.509,63.903c-98.504,9.047-185.976-63.746-195.011-162.24
						c-0.558-6.071-0.804-12.146-0.745-18.206c0.253-26.249,6.25-52.155,17.647-75.835c0.176-0.364,0.261-0.748,0.263-1.127
						c0.01-0.997-0.546-1.961-1.505-2.422c-1.323-0.635-2.912-0.082-3.55,1.245c-11.736,24.382-17.911,51.058-18.172,78.086
						c-0.06,6.236,0.194,12.494,0.767,18.744c9.304,101.414,99.378,176.38,200.791,167.05
						c49.128-4.506,93.559-27.875,125.111-65.798c27.469-33.017,42.311-73.627,42.72-116.002c0.06-6.298-0.198-12.635-0.78-18.991
						C2977.867,1004.872,2898.093,933.043,2804.56,932.156z"/>
				</g>
			</g>
			<g>
				<g style="opacity:0.3;">
					
						<linearGradient id="SVGID_00000118374179777927715160000017160975333096704407_" gradientUnits="userSpaceOnUse" x1="1986.9181" y1="657.6978" x2="1996.8683" y2="657.6978">
						<stop  offset="0" style="stop-color:#FF928E"/>
						<stop  offset="1" style="stop-color:#FE7062"/>
					</linearGradient>
					<path style="fill:url(#SVGID_00000118374179777927715160000017160975333096704407_);" d="M1993.193,649.536
						c-1.605-0.015-3.091,1.017-3.58,2.631c-0.909,2.986-1.765,6-2.569,9.035c-0.527,1.979,0.651,4.007,2.63,4.534
						c1.99,0.525,4.011-0.655,4.535-2.634c0.783-2.947,1.615-5.877,2.498-8.782c0.596-1.957-0.51-4.028-2.469-4.625
						C1993.891,649.589,1993.539,649.539,1993.193,649.536z"/>
					
						<linearGradient id="SVGID_00000142145684805165059740000005939076644804166300_" gradientUnits="userSpaceOnUse" x1="1978.2832" y1="834.8083" x2="2368.0349" y2="834.8083">
						<stop  offset="0" style="stop-color:#FF928E"/>
						<stop  offset="1" style="stop-color:#FE7062"/>
					</linearGradient>
					<path style="fill:url(#SVGID_00000142145684805165059740000005939076644804166300_);" d="M1987.151,676.896
						c2.013,0.378,3.337,2.317,2.957,4.33c-1.139,6.057-2.072,12.242-2.768,18.376c-0.229,2.033-2.04,3.446-4.103,3.266
						c-2.035-0.233-3.497-2.068-3.266-4.104c0.717-6.312,1.676-12.675,2.851-18.91c0.337-1.793,1.911-3.038,3.674-3.021
						C1986.713,676.834,1986.931,676.855,1987.151,676.896z M1982.359,714.278c2.048,0.08,3.636,1.809,3.555,3.853
						c-0.108,2.671-0.178,5.357-0.203,8.047c-0.033,3.498,0.005,7.011,0.113,10.539c0.064,2.046-1.544,3.754-3.59,3.819
						c-2.029,0.057-3.758-1.546-3.821-3.593c-0.111-3.621-0.151-7.236-0.117-10.835c0.026-2.77,0.096-5.527,0.209-8.279
						c0.082-2.005,1.742-3.575,3.738-3.556C1982.281,714.273,1982.32,714.274,1982.359,714.278z M1987.06,755.264
						c0.633,6.147,1.493,12.336,2.56,18.401c0.353,2.016-0.994,3.94-3.01,4.296c-2.027,0.372-3.94-0.994-4.294-3.01
						c-1.097-6.239-1.984-12.605-2.631-18.93c-0.209-2.037,1.273-3.86,3.309-4.068c0.141-0.014,0.28-0.019,0.418-0.018
						C1985.274,751.952,1986.866,753.369,1987.06,755.264z M1993.501,791.831c1.508,5.982,3.254,11.984,5.193,17.837
						c0.644,1.943-0.411,4.041-2.355,4.684c-1.939,0.64-4.039-0.404-4.684-2.354c-1.995-6.022-3.794-12.199-5.342-18.359
						c-0.501-1.986,0.703-3.997,2.689-4.5c0.316-0.077,0.633-0.114,0.942-0.111C1991.588,789.043,1993.081,790.158,1993.501,791.831
						z M2005.17,827.08c2.362,5.701,4.964,11.392,7.74,16.916c0.921,1.829,0.182,4.057-1.649,4.977
						c-1.829,0.912-4.058,0.175-4.977-1.652c-2.855-5.678-5.534-11.533-7.965-17.401c-0.783-1.89,0.115-4.062,2.006-4.845
						c0.476-0.197,0.969-0.287,1.452-0.283C2003.221,824.806,2004.583,825.666,2005.17,827.08z M2021.858,860.283
						c3.162,5.289,6.564,10.542,10.11,15.608c1.176,1.677,0.768,3.988-0.911,5.162c-1.674,1.179-3.991,0.77-5.162-0.911
						c-3.65-5.212-7.149-10.61-10.402-16.052c-1.05-1.759-0.478-4.034,1.281-5.086c0.606-0.363,1.275-0.531,1.933-0.525
						C2019.957,858.491,2021.171,859.132,2021.858,860.283z M2043.179,890.71c3.878,4.762,8.001,9.469,12.252,13.981
						c1.403,1.491,1.332,3.837-0.16,5.242c-1.49,1.398-3.837,1.335-5.24-0.158c-4.371-4.645-8.612-9.482-12.602-14.384
						c-1.292-1.587-1.053-3.924,0.534-5.216c0.698-0.569,1.54-0.839,2.375-0.831C2041.403,889.354,2042.455,889.819,2043.179,890.71
						z M2068.656,917.746c4.525,4.157,9.276,8.221,14.128,12.073c1.603,1.275,1.87,3.605,0.598,5.208
						c-1.275,1.607-3.611,1.87-5.21,0.599c-4.989-3.965-9.876-8.144-14.531-12.418c-1.509-1.386-1.607-3.733-0.223-5.24
						c0.739-0.804,1.753-1.208,2.768-1.198C2067.069,916.779,2067.955,917.103,2068.656,917.746z M2097.746,940.841
						c5.065,3.46,10.353,6.794,15.712,9.916c1.768,1.029,2.368,3.299,1.339,5.07c-1.029,1.765-3.299,2.37-5.072,1.339
						c-5.511-3.21-10.948-6.642-16.162-10.2c-1.692-1.154-2.126-3.461-0.972-5.151c0.726-1.067,1.905-1.631,3.102-1.62
						C2096.401,940.202,2097.115,940.412,2097.746,940.841z M2367.598,956.945c0.965,1.809,0.278,4.056-1.529,5.016
						c-5.609,2.988-11.397,5.801-17.2,8.368c-1.874,0.829-4.063-0.022-4.888-1.893c-0.829-1.872,0.018-4.063,1.892-4.892
						c5.638-2.488,11.261-5.223,16.71-8.126c0.567-0.303,1.176-0.443,1.775-0.437
						C2365.673,954.993,2366.938,955.705,2367.598,956.945z M2129.837,959.496c5.55,2.711,11.26,5.245,16.969,7.538
						c1.899,0.763,2.823,2.92,2.06,4.821c-0.764,1.901-2.92,2.837-4.823,2.062c-5.875-2.36-11.75-4.967-17.462-7.759
						c-1.838-0.898-2.602-3.118-1.705-4.96c0.651-1.326,1.984-2.091,3.37-2.078C2128.783,959.126,2129.325,959.246,2129.837,959.496
						z M2333.35,972.679c0.69,1.93-0.316,4.054-2.244,4.741c-5.961,2.131-12.095,4.071-18.235,5.773
						c-1.976,0.554-4.017-0.61-4.562-2.583c-0.549-1.974,0.607-4.017,2.581-4.562c5.967-1.657,11.931-3.54,17.722-5.612
						c0.423-0.152,0.855-0.219,1.282-0.215C2331.403,970.236,2332.813,971.176,2333.35,972.679z M2164.276,973.318
						c5.889,1.878,11.909,3.56,17.894,4.997c1.99,0.479,3.217,2.482,2.739,4.474c-0.478,1.99-2.465,3.221-4.474,2.738
						c-6.157-1.481-12.353-3.209-18.414-5.145c-1.951-0.62-3.027-2.709-2.406-4.659c0.508-1.588,1.984-2.595,3.566-2.58
						C2163.544,973.146,2163.913,973.203,2164.276,973.318z M2297.171,983.262c0.402,2.007-0.901,3.96-2.909,4.361
						c-6.225,1.245-12.576,2.278-18.875,3.073c-2.009,0.245-3.885-1.19-4.141-3.216c-0.255-2.034,1.183-3.888,3.216-4.145
						c6.123-0.772,12.295-1.773,18.349-2.984c0.256-0.052,0.512-0.075,0.764-0.072
						C2295.292,980.296,2296.822,981.51,2297.171,983.262z M2200.376,981.985c6.077,0.999,12.278,1.789,18.426,2.34
						c2.042,0.187,3.545,1.986,3.361,4.026c-0.185,2.04-1.975,3.511-4.024,3.362c-6.33-0.57-12.712-1.38-18.967-2.41
						c-2.02-0.334-3.389-2.242-3.056-4.262c0.302-1.826,1.892-3.121,3.688-3.104
						C2199.994,981.939,2200.184,981.955,2200.376,981.985z M2259.844,988.495c0.111,2.046-1.458,3.792-3.503,3.903
						c-5.608,0.301-11.303,0.428-16.922,0.375l-2.201-0.031c-2.048-0.042-3.673-1.733-3.635-3.78
						c0.04-2.035,1.712-3.654,3.742-3.635c0,0,0.025,0,0.039,0l2.125,0.03c5.465,0.052,11-0.068,16.452-0.366
						c0.08-0.003,0.159-0.005,0.239-0.004C2258.122,985.006,2259.738,986.532,2259.844,988.495z"/>
					
						<linearGradient id="SVGID_00000106860046917670548130000006008735894648085907_" gradientUnits="userSpaceOnUse" x1="2377.0833" y1="946.5944" x2="2392.2451" y2="946.5944">
						<stop  offset="0" style="stop-color:#FF928E"/>
						<stop  offset="1" style="stop-color:#FE7062"/>
					</linearGradient>
					<path style="fill:url(#SVGID_00000106860046917670548130000006008735894648085907_);" d="M2388.568,940.347
						c-0.73-0.007-1.468,0.199-2.119,0.642c-2.512,1.712-5.059,3.386-7.638,5.012c-1.73,1.096-2.248,3.387-1.156,5.116
						c1.093,1.731,3.385,2.242,5.116,1.157c2.652-1.676,5.267-3.394,7.854-5.154c1.691-1.154,2.129-3.461,0.977-5.151
						C2390.892,940.922,2389.741,940.358,2388.568,940.347z"/>
				</g>
				<g style="opacity:0.3;">
					
						<linearGradient id="SVGID_00000027590764491424323850000008062821513323020171_" gradientUnits="userSpaceOnUse" x1="2492.9966" y1="778.6596" x2="2502.1804" y2="778.6596">
						<stop  offset="0" style="stop-color:#FF928E"/>
						<stop  offset="1" style="stop-color:#FE7062"/>
					</linearGradient>
					<path style="fill:url(#SVGID_00000027590764491424323850000008062821513323020171_);" d="M2498.503,770.406
						c-1.784-0.017-3.368,1.258-3.685,3.068c-0.525,3.009-1.108,5.99-1.74,8.96c-0.425,2.002,0.851,3.973,2.854,4.397
						c2.005,0.429,3.973-0.848,4.4-2.85c0.652-3.058,1.248-6.134,1.793-9.227c0.352-2.018-0.997-3.939-3.014-4.292
						C2498.906,770.425,2498.701,770.407,2498.503,770.406z"/>
					
						<linearGradient id="SVGID_00000163053295557622303260000012176234380052845220_" gradientUnits="userSpaceOnUse" x1="2105.5715" y1="612.2806" x2="2505.9666" y2="612.2806">
						<stop  offset="0" style="stop-color:#FF928E"/>
						<stop  offset="1" style="stop-color:#FE7062"/>
					</linearGradient>
					<path style="fill:url(#SVGID_00000163053295557622303260000012176234380052845220_);" d="M2251.298,465.118
						c6.264,0.215,12.577,0.651,18.76,1.3c2.037,0.211,3.514,2.036,3.302,4.073c-0.216,2.036-2.04,3.59-4.074,3.3
						c-6.014-0.629-12.15-1.053-18.239-1.26c-2.048-0.07-3.65-1.787-3.58-3.831c0.068-2.018,1.732-3.602,3.738-3.583
						C2251.205,465.117,2251.266,465.117,2251.298,465.118z M2236.323,468.731c0.075,2.046-1.524,3.766-3.57,3.84
						c-1.941,0.073-3.889,0.166-5.839,0.285c-4.127,0.247-8.3,0.595-12.412,1.034c-1.99,0.228-3.864-1.252-4.08-3.289
						c-0.218-2.037,1.256-3.867,3.293-4.083c4.222-0.453,8.514-0.81,12.756-1.066c2.007-0.118,4.011-0.219,6.011-0.292
						c0.058-0.003,0.115-0.002,0.175-0.002C2234.625,465.176,2236.25,466.742,2236.323,468.731z M2288.684,469.053
						c6.168,1.101,12.353,2.432,18.39,3.962c1.985,0.505,3.186,2.522,2.683,4.505c-0.501,1.986-2.532,3.184-4.503,2.683
						c-5.865-1.486-11.877-2.781-17.87-3.848c-2.016-0.359-3.358-2.284-3-4.3c0.322-1.809,1.903-3.075,3.681-3.058
						C2288.27,468.998,2288.477,469.019,2288.684,469.053z M2199.391,472.194c0.364,2.013-0.975,3.941-2.992,4.306
						c-5.989,1.079-12.002,2.385-17.872,3.882c-2.003,0.514-4.004-0.693-4.51-2.679c-0.504-1.982,0.693-4.001,2.677-4.509
						c6.04-1.539,12.228-2.881,18.391-3.992c0.234-0.042,0.466-0.062,0.697-0.06
						C2197.525,469.159,2199.069,470.413,2199.391,472.194z M2325.113,478.28c5.907,1.957,11.834,4.16,17.618,6.548
						c1.894,0.778,2.795,2.949,2.015,4.843c-0.782,1.889-2.947,2.793-4.843,2.009c-5.623-2.319-11.383-4.459-17.125-6.361
						c-1.944-0.645-2.998-2.741-2.353-4.687c0.521-1.566,1.985-2.555,3.556-2.54C2324.356,478.097,2324.737,478.158,2325.113,478.28
						z M2163.326,480.842c0.645,1.94-0.404,4.041-2.349,4.689c-5.775,1.918-11.54,4.073-17.13,6.395
						c-1.899,0.79-4.061-0.111-4.847-2.001c-0.786-1.89,0.111-4.062,2.002-4.847c5.757-2.39,11.688-4.608,17.635-6.586
						c0.399-0.13,0.808-0.192,1.206-0.188C2161.383,478.318,2162.811,479.298,2163.326,480.842z M2359.843,492.609
						c5.574,2.782,11.131,5.808,16.515,8.994c1.763,1.041,2.345,3.317,1.303,5.078c-1.041,1.761-3.313,2.356-5.078,1.303
						c-5.234-3.095-10.633-6.035-16.051-8.738c-1.832-0.915-2.577-3.141-1.661-4.973c0.654-1.311,1.982-2.067,3.353-2.054
						C2358.77,492.225,2359.322,492.35,2359.843,492.609z M2128.869,494.558c0.919,1.831,0.178,4.058-1.652,4.977
						c-5.428,2.727-10.825,5.681-16.042,8.782c-1.76,1.047-4.037,0.468-5.081-1.291c-1.048-1.762-0.47-4.034,1.291-5.082
						c5.367-3.193,10.92-6.234,16.505-9.037c0.544-0.274,1.125-0.399,1.696-0.394
						C2126.931,492.526,2128.221,493.273,2128.869,494.558z M2392.195,511.748c5.152,3.569,10.226,7.353,15.077,11.244
						c1.598,1.283,1.854,3.617,0.57,5.213c-1.28,1.598-3.614,1.845-5.211,0.574c-4.715-3.786-9.648-7.465-14.658-10.937
						c-1.684-1.164-2.104-3.474-0.938-5.157c0.73-1.051,1.902-1.609,3.088-1.598C2390.84,511.093,2391.561,511.307,2392.195,511.748
						z M2421.521,535.277c4.597,4.261,9.085,8.726,13.339,13.266c1.401,1.495,1.323,3.841-0.17,5.242
						c-1.493,1.398-3.842,1.325-5.24-0.173c-4.136-4.412-8.501-8.753-12.972-12.894c-1.502-1.394-1.59-3.738-0.198-5.242
						c0.739-0.797,1.747-1.196,2.756-1.186C2419.926,534.298,2420.815,534.625,2421.521,535.277z M2447.232,562.716
						c3.943,4.861,7.757,9.921,11.333,15.03c1.173,1.677,0.766,3.991-0.912,5.162c-1.682,1.179-3.991,0.77-5.164-0.911
						c-3.476-4.968-7.182-9.884-11.014-14.606c-1.29-1.592-1.048-3.929,0.542-5.216c0.698-0.566,1.537-0.837,2.37-0.829
						C2445.453,561.357,2446.507,561.827,2447.232,562.716z M2468.8,593.543c3.213,5.376,6.269,10.927,9.081,16.497
						c0.924,1.827,0.188,4.057-1.639,4.981c-1.825,0.917-4.062,0.187-4.981-1.64c-2.732-5.413-5.703-10.808-8.828-16.029
						c-1.05-1.759-0.476-4.036,1.279-5.087c0.61-0.363,1.277-0.531,1.935-0.525C2466.897,591.751,2468.112,592.394,2468.8,593.543z
						 M2485.761,627.144c2.409,5.769,4.638,11.694,6.621,17.606c0.65,1.945-0.394,4.044-2.335,4.696
						c-1.947,0.649-4.043-0.401-4.695-2.337c-1.928-5.746-4.093-11.503-6.432-17.112c-0.79-1.887,0.103-4.057,1.991-4.847
						c0.478-0.202,0.975-0.292,1.462-0.287C2483.812,624.877,2485.174,625.73,2485.761,627.144z M2497.725,662.795
						c1.556,6.044,2.913,12.223,4.035,18.371c0.369,2.013-0.965,3.944-2.982,4.313c-2.013,0.328-3.946-0.972-4.313-2.985
						c-1.092-5.97-2.411-11.979-3.921-17.848c-0.511-1.986,0.683-4.006,2.667-4.516c0.321-0.083,0.645-0.121,0.961-0.118
						C2495.811,660.027,2497.299,661.135,2497.725,662.795z M2504.481,699.775c0.486,4.444,0.87,8.948,1.133,13.393
						c0.107,1.787,0.195,3.573,0.264,5.354c0.082,2.048-1.509,3.773-3.555,3.855c-2.038,0.13-3.771-1.509-3.852-3.556
						c-0.071-1.738-0.155-3.474-0.259-5.212c-0.257-4.323-0.629-8.703-1.104-13.022c-0.223-2.036,1.246-3.869,3.281-4.093
						c0.151-0.016,0.298-0.021,0.446-0.02C2502.685,696.492,2504.271,697.89,2504.481,699.775z M2502.369,733.52
						c2.048,0.064,3.657,1.773,3.595,3.822c-0.195,6.252-0.614,12.57-1.253,18.774c-0.209,2.04-2.004,3.514-4.066,3.31
						c-2.037-0.211-3.519-2.033-3.309-4.069c0.617-6.03,1.028-12.167,1.212-18.245c0.063-2.019,1.729-3.612,3.74-3.593
						L2502.369,733.52z"/>
					
						<linearGradient id="SVGID_00000058568328737956192910000012968125984212524962_" gradientUnits="userSpaceOnUse" x1="2082.3208" y1="518.0086" x2="2097.2385" y2="518.0086">
						<stop  offset="0" style="stop-color:#FF928E"/>
						<stop  offset="1" style="stop-color:#FE7062"/>
					</linearGradient>
					<path style="fill:url(#SVGID_00000058568328737956192910000012968125984212524962_);" d="M2093.561,511.586
						c-0.743-0.007-1.495,0.211-2.153,0.669c-2.57,1.792-5.107,3.631-7.607,5.507c-1.635,1.231-1.967,3.555-0.738,5.194
						c1.234,1.637,3.557,1.959,5.194,0.737c2.43-1.828,4.895-3.614,7.395-5.358c1.679-1.173,2.09-3.482,0.919-5.162
						C2095.858,512.151,2094.721,511.596,2093.561,511.586z"/>
				</g>
				<g>
					
						<linearGradient id="SVGID_00000004538984982935150200000017244915061855912618_" gradientUnits="userSpaceOnUse" x1="2341.7136" y1="554.27" x2="2100.252" y2="983.5345">
						<stop  offset="0" style="stop-color:#FF928E"/>
						<stop  offset="1" style="stop-color:#FE7062"/>
					</linearGradient>
					<path style="fill:url(#SVGID_00000004538984982935150200000017244915061855912618_);" d="M2073.878,620.435
						c-0.851,1.025-0.96,2.476-0.27,3.615l19.699,32.506c-7.942,15.875-13.408,33.13-15.933,51.22l-34.628,15.612
						c-1.214,0.547-1.947,1.805-1.826,3.132l4.165,45.399c0.121,1.328,1.071,2.431,2.365,2.748l36.891,9.05
						c5.773,17.331,14.287,33.303,24.985,47.468l-13.456,35.546c-0.471,1.247-0.1,2.654,0.923,3.507l35.048,29.157
						c1.023,0.853,2.476,0.961,3.616,0.271l32.505-19.699c15.874,7.942,33.128,13.41,51.22,15.933l15.611,34.627
						c0.549,1.214,1.806,1.949,3.132,1.826l45.402-4.165c1.325-0.121,2.429-1.071,2.747-2.365l9.05-36.891
						c17.331-5.773,33.303-14.287,47.467-24.985l35.547,13.457c1.247,0.471,2.654,0.101,3.507-0.925l29.157-35.046
						c0.853-1.025,0.962-2.476,0.271-3.615l-19.699-32.506c7.942-15.874,13.408-33.128,15.932-51.22l34.629-15.61
						c1.214-0.547,1.947-1.807,1.826-3.133l-4.165-45.4c-0.121-1.327-1.072-2.43-2.366-2.747l-36.889-9.05
						c-5.773-17.331-14.289-33.303-24.985-47.468l13.455-35.546c0.472-1.247,0.101-2.654-0.923-3.507l-35.046-29.157
						c-1.025-0.853-2.476-0.961-3.615-0.271l-32.506,19.699c-15.875-7.942-33.13-13.408-51.22-15.933l-15.612-34.627
						c-0.547-1.214-1.805-1.947-3.132-1.826l-45.4,4.165c-1.327,0.121-2.43,1.071-2.747,2.366l-9.05,36.889
						c-17.331,5.773-33.303,14.289-47.469,24.985l-35.546-13.456c-1.247-0.471-2.656-0.1-3.507,0.923L2073.878,620.435z"/>
					<path style="fill:#FFFFFF;" d="M2249.198,687.281c24.068,3.78,40.578,26.438,36.798,50.51
						c-1.833,11.661-8.094,21.909-17.635,28.859c-9.54,6.953-21.214,9.771-32.878,7.937c-11.66-1.831-21.908-8.094-28.859-17.633
						c-6.949-9.542-9.769-21.217-7.937-32.877c1.831-11.661,8.094-21.911,17.634-28.859c7.755-5.653,16.919-8.571,26.342-8.482
						C2244.831,686.757,2247.015,686.937,2249.198,687.281z M2263.993,760.655c7.94-5.783,13.152-14.312,14.677-24.012
						c3.145-20.035-10.593-38.892-30.624-42.036h-0.002c-9.695-1.529-19.419,0.818-27.356,6.606
						c-7.94,5.783-13.152,14.312-14.677,24.013c-1.523,9.704,0.822,19.424,6.606,27.362c5.785,7.941,14.312,13.152,24.018,14.675
						c1.815,0.285,3.633,0.436,5.437,0.453C2249.912,767.789,2257.541,765.36,2263.993,760.655z"/>
					<path style="fill:#FFFFFF;" d="M2244.195,617.899c-3.818-0.036-7.667,0.119-11.55,0.473l0,0
						c-0.175,0.017-0.349,0.034-0.52,0.049c-7.76,0.746-15.43,2.28-22.815,4.568c-0.137,0.041-0.271,0.084-0.406,0.127
						c-1.573,0.491-2.583,1.938-2.6,3.497c-0.004,0.381,0.052,0.769,0.172,1.15c0.611,1.951,2.7,3.043,4.646,2.428
						c7.175-2.25,14.642-3.74,22.198-4.432l0,0c0.044-0.003,0.087-0.011,0.087-0.011c41.066-3.716,78.845,16.51,99.51,49.14
						c8.714,13.754,14.384,29.716,15.97,47.014c0.335,3.635,0.48,7.242,0.444,10.816c-0.519,53.828-41.855,99.73-96.589,104.751
						c-28.287,2.59-55.871-5.974-77.696-24.138c-21.826-18.16-35.277-43.731-37.869-72.006c-0.333-3.599-0.477-7.2-0.443-10.793
						c0.149-15.558,3.701-30.909,10.456-44.938c0.244-0.507,0.362-1.043,0.365-1.571c0.013-1.39-0.761-2.735-2.098-3.377
						c-1.849-0.886-4.061-0.115-4.95,1.734c-7.228,15.01-11.027,31.436-11.188,48.079c-0.036,3.841,0.118,7.693,0.471,11.541
						c2.774,30.251,17.162,57.605,40.513,77.033c23.348,19.431,52.865,28.599,83.115,25.823
						c58.553-5.372,102.773-54.477,103.329-112.06c0.036-3.823-0.119-7.684-0.475-11.57
						C2350.902,662.666,2301.783,618.448,2244.195,617.899z"/>
				</g>
			</g>
		</g>
		<g>
			
				<linearGradient id="SVGID_00000149348791377064038350000014338584075782332599_" gradientUnits="userSpaceOnUse" x1="-6988.29" y1="3165.5432" x2="-6778.4473" y2="3165.5432" gradientTransform="matrix(1 0 0 1 7869.0601 0)">
				<stop  offset="0" style="stop-color:#4F52FF"/>
				<stop  offset="1" style="stop-color:#4042E2"/>
			</linearGradient>
			<path style="fill:url(#SVGID_00000149348791377064038350000014338584075782332599_);" d="M1084.687,3155.394
				c-35.948,3.108-98.339,8.155-147.525,10.32c-29.567,1.302-46.589-1.594-56.392-5.519c0.017,1.105,0.048,2.15,0.091,3.119
				c0.232,5.176,4.438,9.317,9.666,9.608c92.939,5.188,166.854,1.795,193.168,0.194c5.441-0.332,8.683-6.245,5.901-10.883
				C1088.204,3159.914,1086.518,3157.64,1084.687,3155.394z"/>
			
				<linearGradient id="SVGID_00000117675210239191197050000009143750148036997551_" gradientUnits="userSpaceOnUse" x1="-6988.3022" y1="3124.4167" x2="-6784.373" y2="3124.4167" gradientTransform="matrix(1 0 0 1 7869.0601 0)">
				<stop  offset="0" style="stop-color:#09005D"/>
				<stop  offset="1" style="stop-color:#1A0F91"/>
			</linearGradient>
			<path style="fill:url(#SVGID_00000117675210239191197050000009143750148036997551_);" d="M937.162,3165.713
				c49.186-2.165,111.576-7.212,147.525-10.32c-35.343-43.363-147.525-72.589-147.525-72.589h-31.684
				c-21.792,31.412-24.947,61.319-24.709,77.39C890.573,3164.119,907.595,3167.015,937.162,3165.713z"/>
			
				<linearGradient id="SVGID_00000162315896563477474150000009082825072682460855_" gradientUnits="userSpaceOnUse" x1="-6968.917" y1="3066.9985" x2="-6909.8081" y2="3066.9985" gradientTransform="matrix(1 0 0 1 7869.0601 0)">
				<stop  offset="0" style="stop-color:#FEBBBA"/>
				<stop  offset="1" style="stop-color:#FF928E"/>
			</linearGradient>
			<path style="fill:url(#SVGID_00000162315896563477474150000009082825072682460855_);" d="M900.143,3031.08l2.965,58.672
				c0.321,6.354,5.077,11.693,11.44,12.602c6.331,0.906,14.81,1.021,23.8-1.972c5.531-1.841,9.638-6.501,10.658-12.187
				l10.245-57.116H900.143z"/>
			<g>
				
					<linearGradient id="SVGID_00000174572531092110256410000015408106284133184418_" gradientUnits="userSpaceOnUse" x1="-7362.8311" y1="3217.5774" x2="-7282.416" y2="3217.5774" gradientTransform="matrix(1 0 0 1 7869.0601 0)">
					<stop  offset="0" style="stop-color:#4F52FF"/>
					<stop  offset="1" style="stop-color:#4042E2"/>
				</linearGradient>
				<path style="fill:url(#SVGID_00000174572531092110256410000015408106284133184418_);" d="M532.414,3223.077
					c-15.59-2.811-22.643-13.277-25.601-24.466c-0.02,0.101-0.039,0.201-0.058,0.301c-2.294,11.804,3.023,24.036,13.653,29.854
					c12.848,7.032,26.896,8.23,37.802,7.649c11.701-0.623,22.441-6.881,28.345-16.896l0.089-0.151
					C574.899,3226.879,558.413,3227.763,532.414,3223.077z"/>
				
					<linearGradient id="SVGID_00000103972565294819845540000017714991334487777681_" gradientUnits="userSpaceOnUse" x1="-7362.2461" y1="3137.5549" x2="-7244.2124" y2="3137.5549" gradientTransform="matrix(1 0 0 1 7869.0601 0)">
					<stop  offset="0" style="stop-color:#09005D"/>
					<stop  offset="1" style="stop-color:#1A0F91"/>
				</linearGradient>
				<path style="fill:url(#SVGID_00000103972565294819845540000017714991334487777681_);" d="M605.916,3049.157h-26.128
					c-39.8-1.052-64.792,107.44-72.973,149.454c2.957,11.19,10.011,21.656,25.601,24.466c25.998,4.686,42.485,3.802,54.229-3.709
					c21.502-36.568,32.162-90.127,37.286-121.384C629.758,3062.436,605.916,3049.157,605.916,3049.157z"/>
			</g>
			
				<linearGradient id="SVGID_00000086672348540519365700000007029594432729429152_" gradientUnits="userSpaceOnUse" x1="-7300.894" y1="3036.1758" x2="-7230.2534" y2="3036.1758" gradientTransform="matrix(1 0 0 1 7869.0601 0)">
				<stop  offset="0" style="stop-color:#FEBBBA"/>
				<stop  offset="1" style="stop-color:#FF928E"/>
			</linearGradient>
			<path style="fill:url(#SVGID_00000086672348540519365700000007029594432729429152_);" d="M583.145,2994.698l-14.509,57.707
				c-1.779,7.076,1.607,14.394,8.149,17.751c8.117,4.166,19.544,8.542,30.046,7.275c4.939-0.595,9.042-4.074,10.674-8.725
				l21.301-60.714L583.145,2994.698z"/>
			
				<linearGradient id="SVGID_00000099626693272662926930000000840238982712211899_" gradientUnits="userSpaceOnUse" x1="2211.7717" y1="1723.2323" x2="1802.6304" y2="2011.6434">
				<stop  offset="0" style="stop-color:#09005D"/>
				<stop  offset="1" style="stop-color:#1A0F91"/>
			</linearGradient>
			<path style="fill:url(#SVGID_00000099626693272662926930000000840238982712211899_);" d="M1093.538,2234.665
				c0,0-129.659,810.482-127.524,814.936c0,0-35.811,16.277-74.851,2.074c0,0,11.725-433.26,39.199-599.383
				c0,0-221.285,387.25-291.556,580.208c0,0-36.651-4.37-66.99-24.337c0,0,238.262-697.032,301.827-789.873L1093.538,2234.665z"/>
			<polygon style="fill:#91B3FA;" points="936.924,2445.107 985.005,2368.31 1019.978,2361.272 1019.335,2358.076 982.987,2365.392 
				934.161,2443.379 			"/>
			
				<linearGradient id="SVGID_00000104701559435296159180000013152749247484514472_" gradientUnits="userSpaceOnUse" x1="-6329.2666" y1="1548.209" x2="-6609.042" y2="1912.1893" gradientTransform="matrix(1 0 0 1 7869.0601 0)">
				<stop  offset="0" style="stop-color:#FEBBBA"/>
				<stop  offset="1" style="stop-color:#FF928E"/>
			</linearGradient>
			<path style="fill:url(#SVGID_00000104701559435296159180000013152749247484514472_);" d="M1688.538,1441.027
				c0,0-87.492,19.297-140.707,43.867c-10.569,4.88-18.999,13.412-23.8,23.929c-15.915,34.863-63.532,122.287-155.877,164.008
				c13.298,17.651,34.711,54.366,44.039,116.078c55.463-41.281,103.346-110.221,126.334-223.286c0,0,17.505,9.516,39.342-1.089
				c11.537-5.603,24.859-13.551,34.859-19.801c9.963-6.229,17.384-15.91,20.267-27.217c3.806-14.931,1.564-28.06,1.564-42.145
				l44.972-13.933C1679.531,1461.437,1693.05,1456.334,1688.538,1441.027z"/>
			
				<linearGradient id="SVGID_00000116928619060238897070000006741714535645098922_" gradientUnits="userSpaceOnUse" x1="1535.6964" y1="612.174" x2="1158.4318" y2="1522.6387">
				<stop  offset="0" style="stop-color:#FF928E"/>
				<stop  offset="1" style="stop-color:#FE7062"/>
			</linearGradient>
			<path style="fill:url(#SVGID_00000116928619060238897070000006741714535645098922_);" d="M1412.193,1788.908
				c-9.328-61.712-30.741-98.427-44.039-116.078c-57.367,25.918-131.989,34.204-227.013,1.277
				c-8.759-3.035-17.896-4.813-27.16-5.356c-50.587-2.966-217.285-8.378-355.223,37.194c-29.03,9.591-52.543,31.052-64.661,58.859
				c-37.313,85.63-97.724,280.641,69.982,379.093c12.885-31.989,27.757-57.703,40.474-76.594
				c-27.008-45.555-35.007-107.775,12.92-188.799c34.946,94.363,51.341,232.051,54.767,292.985
				c1.128,20.062-2.392,40.086-10.263,58.608l-0.859,2.02c-1.684,3.964,0.634,8.519,4.871,9.47
				c94.412,21.208,192.608,15.446,221.945,13.022c5.238-0.432,9.589-4.18,10.79-9.242c45.91-193.446,46.015-325.402,34.775-408.819
				C1176.444,1846.15,1307.769,1866.629,1412.193,1788.908z"/>
			
				<linearGradient id="SVGID_00000003090274936005572490000015480821976285137083_" gradientUnits="userSpaceOnUse" x1="1786.2123" y1="337.2648" x2="692.9312" y2="2691.5044">
				<stop  offset="0" style="stop-color:#FDF53F"/>
				<stop  offset="1" style="stop-color:#D93C65"/>
			</linearGradient>
			<path style="fill:url(#SVGID_00000003090274936005572490000015480821976285137083_);" d="M1100.172,1719.033
				c0,0,22.466,35.397,33.518,118.886L1100.172,1719.033z"/>
			
				<linearGradient id="SVGID_00000026139753253908418590000008034812079562728099_" gradientUnits="userSpaceOnUse" x1="-6952.8804" y1="1783.4551" x2="-6922.2725" y2="1622.7634" gradientTransform="matrix(1 0 0 1 7869.0601 0)">
				<stop  offset="0" style="stop-color:#FEBBBA"/>
				<stop  offset="1" style="stop-color:#FF928E"/>
			</linearGradient>
			<path style="fill:url(#SVGID_00000026139753253908418590000008034812079562728099_);" d="M900.691,1556.061
				c0,0-9.551,100.986-17.961,130.858c-1.276,4.532,0.693,9.311,4.81,11.663c14.273,8.155,48.505,21.457,95.329-1.491
				c7.586-3.718,12.146-11.625,11.792-19.993l-4.125-97.585L900.691,1556.061z"/>
			<g>
				
					<linearGradient id="SVGID_00000142163607954700554570000015347685162776742564_" gradientUnits="userSpaceOnUse" x1="-6870.0601" y1="1488.6372" x2="-7044.6968" y2="1622.2609" gradientTransform="matrix(1 0 0 1 7869.0601 0)">
					<stop  offset="0" style="stop-color:#FEBBBA"/>
					<stop  offset="1" style="stop-color:#FF928E"/>
				</linearGradient>
				<path style="fill:url(#SVGID_00000142163607954700554570000015347685162776742564_);" d="M992.596,1426.868
					c0,0,30.549,70.175,32.6,107.008c2.051,36.833,9.988,60.733-32.6,68.15c-42.589,7.417-78.465-13.799-97.902-50.488
					c0,0-30.453-56.535-23.622-79.687C877.904,1448.697,992.596,1426.868,992.596,1426.868z"/>
				
					<linearGradient id="SVGID_00000104680230580248468870000011291516762446171061_" gradientUnits="userSpaceOnUse" x1="-6992.9966" y1="1382.8362" x2="-6830.3496" y2="1592.2435" gradientTransform="matrix(1 0 0 1 7869.0601 0)">
					<stop  offset="0" style="stop-color:#09005D"/>
					<stop  offset="1" style="stop-color:#1A0F91"/>
				</linearGradient>
				<path style="fill:url(#SVGID_00000104680230580248468870000011291516762446171061_);" d="M909.248,1525.158l2.424-1.069
					c3.087-1.361,4.407-5.034,2.856-8.03c-6.005-11.604-17.713-38.193-2.589-44.396c19.492-7.994,96.701-23.739,113.359-51.135
					c16.01-26.331,1.825-60.318-19.495-69.986c-1.427-0.647-3.109-0.133-3.841,1.251l-1.777,3.362
					c-1.216,2.301-4.615,1.952-5.339-0.548v0c-0.695-2.4-3.887-2.866-5.211-0.747c-5.121,8.197-18.945,21.484-55.914,28.307
					c-52.54,9.697-87.277,30.958-88.142,67.264c-0.055,2.307-2.508,3.589-4.479,2.388c-3.879-2.364-10.087-3.473-18.384,3.503
					c-14.429,12.133-8.525,43.606,23.107,69.494c1.502,1.23,1.49,3.576-0.137,4.635c-5.734,3.733-14.283,12.615,7.867,24.456
					c22.911,12.247,40.019,11.242,46.607,10.155c1.639-0.271,2.695-1.857,2.338-3.479l-7.031-31.91
					c-0.398-1.806,0.977-3.516,2.826-3.516H909.248z"/>
				
					<linearGradient id="SVGID_00000059988869783835152020000003034364190018575005_" gradientUnits="userSpaceOnUse" x1="-6891.7212" y1="1460.3265" x2="-7066.3584" y2="1593.9509" gradientTransform="matrix(1 0 0 1 7869.0601 0)">
					<stop  offset="0" style="stop-color:#FEBBBA"/>
					<stop  offset="1" style="stop-color:#FF928E"/>
				</linearGradient>
				<path style="fill:url(#SVGID_00000059988869783835152020000003034364190018575005_);" d="M910.571,1531.891
					c0,0-11.654-44.827-31.752-32.258c-20.098,12.568,10.429,50.226,26.587,51.904L910.571,1531.891z"/>
			</g>
			
				<linearGradient id="SVGID_00000098933411268597856300000009767858388487547059_" gradientUnits="userSpaceOnUse" x1="1910.489" y1="855.3836" x2="1682.4426" y2="1308.1221">
				<stop  offset="0" style="stop-color:#FEBBBA"/>
				<stop  offset="1" style="stop-color:#FF928E"/>
			</linearGradient>
			<path style="fill:url(#SVGID_00000098933411268597856300000009767858388487547059_);" d="M1561.861,1554.72
				c-0.743,0-1.49-0.246-2.112-0.752c-1.438-1.167-1.654-3.28-0.488-4.718c3.305-4.064,32.613-39.898,43.843-46.247
				c4.297-2.427,6.763-4.865,7.323-7.246c0.298-1.256,0.069-2.658-0.701-4.253l-34.987,7.012l-19.64,16.855
				c-1.402,1.208-3.524,1.046-4.729-0.36s-1.045-3.522,0.36-4.729l20.305-17.426c0.436-0.375,0.963-0.63,1.526-0.743l38.19-7.654
				c1.31-0.265,2.685,0.292,3.439,1.413c2.722,4.04,3.625,7.776,2.764,11.427c-1.022,4.336-4.474,8.112-10.549,11.545
				c-8.574,4.845-33.179,33.865-41.937,44.638C1563.803,1554.298,1562.837,1554.72,1561.861,1554.72z"/>
			
				<linearGradient id="SVGID_00000133509993458183014730000000279229317763349904_" gradientUnits="userSpaceOnUse" x1="-6822.4775" y1="1957.7957" x2="-6922.6885" y2="2108.1121" gradientTransform="matrix(1 0 0 1 7869.0601 0)">
				<stop  offset="0" style="stop-color:#FEBBBA"/>
				<stop  offset="1" style="stop-color:#FF928E"/>
			</linearGradient>
			<path style="fill:url(#SVGID_00000133509993458183014730000000279229317763349904_);" d="M909.711,2212.864l137.857-3.001
				c0,0-120.215-33.981-127.674-24.726c0,0-74.509-48.962-115.341-117.835c-12.717,18.892-27.588,44.605-40.474,76.594
				C800.684,2165.386,848.757,2202.717,909.711,2212.864z"/>
			
				<linearGradient id="SVGID_00000136409727302139209010000000680437551754604719_" gradientUnits="userSpaceOnUse" x1="3550.5027" y1="1982.0743" x2="3452.3086" y2="2129.3655" gradientTransform="matrix(-1 0 0 1 4397.1772 0)">
				<stop  offset="0" style="stop-color:#FEBBBA"/>
				<stop  offset="1" style="stop-color:#FF928E"/>
			</linearGradient>
			<path style="fill:url(#SVGID_00000136409727302139209010000000680437551754604719_);" d="M905.823,2188.993
				c0,0-2.843,54.928,69.258,46.951c39.185-4.335,102.446-40.87,102.446-40.87S912.639,2194.636,905.823,2188.993z"/>
			<g>
				
					<linearGradient id="SVGID_00000044888719071111129390000001954634211589410729_" gradientUnits="userSpaceOnUse" x1="4499.0552" y1="2392.9849" x2="4222.9146" y2="2468.6677" gradientTransform="matrix(-0.9988 -0.0494 -0.0494 0.9988 5487.793 -55.0328)">
					<stop  offset="0" style="stop-color:#09005D"/>
					<stop  offset="1" style="stop-color:#1A0F91"/>
				</linearGradient>
				<path style="fill:url(#SVGID_00000044888719071111129390000001954634211589410729_);" d="M934.057,2203.728
					c0.262,0.013,0.524,0.02,0.789,0.018l342.761-0.37c8.473-0.007,15.334-6.81,15.326-15.194
					c-0.008-8.387-6.91-15.315-15.36-15.164l-342.761,0.371c-8.473,0.007-15.334,6.81-15.326,15.194
					C919.495,2196.704,925.951,2203.331,934.057,2203.728z"/>
				
					<linearGradient id="SVGID_00000161605669514156350100000010540712751357229954_" gradientUnits="userSpaceOnUse" x1="4195.9282" y1="1936.6174" x2="4001.1458" y2="2142.4902" gradientTransform="matrix(-1 0 0 1 5446.3242 0)">
					<stop  offset="0" style="stop-color:#09005D"/>
					<stop  offset="1" style="stop-color:#1A0F91"/>
				</linearGradient>
				<path style="fill:url(#SVGID_00000161605669514156350100000010540712751357229954_);" d="M1585.734,1895.809H1300.28
					c-21.058,0-40.224,12.024-49.207,30.869l-131.965,276.869h354.743c13.57,0,25.763-8.204,30.75-20.691l102.333-256.201
					C1612.847,1911.851,1601.82,1895.809,1585.734,1895.809z"/>
				<path style="fill:#91B3FA;" d="M1384.628,2037.768c-6.186,19.015-1.616,37.483,10.207,41.248
					c11.823,3.765,26.422-8.597,32.608-27.613c6.186-19.015,1.616-37.483-10.207-41.248
					C1405.413,2006.39,1390.814,2018.753,1384.628,2037.768z"/>
			</g>
		</g>
		<g>
			<g>
				<path style="fill:#7D97F4;" d="M1718.49,675.809c-2.781-0.066-5.019-2.339-5.069-5.155
					c-0.519-28.868-9.413-172.206-134.096-202.159c-138.811-33.347-202.335,109.571-202.335,109.571
					s-171.749-66.695-204.688,111.953c-107.691,26.167-135.67,168.554-65.626,238.13c11.129,11.055,26.046,17.303,41.637,17.445
					l674.423,6.151c19.794,0.181,37.346-12.936,42.969-32.151C1886.772,847.604,1914.385,680.454,1718.49,675.809z"/>
				<path style="fill:#91B3FA;" d="M1703.076,678.872c-2.776-0.067-5.011-2.334-5.067-5.145
					c-0.552-27.688-9.359-160.599-126.79-188.461c-131.256-31.141-191.322,102.322-191.322,102.322s-162.401-62.283-193.547,104.546
					c-100.852,24.201-127.77,154.862-63.934,220.487c11.191,11.505,26.431,18.046,42.38,18.19l634.878,5.718
					c19.839,0.179,37.417-12.997,43-32.272C1862.473,835.894,1885.97,683.303,1703.076,678.872z"/>
			</g>
			<g>
				<path style="fill:#FFFFFF;" d="M1463.6,797.698l-60.015,2.424l-6.933-171.646c-0.087-2.159,1.593-3.981,3.752-4.068
					l51.934-2.098c2.303-0.093,4.246,1.699,4.339,4.002L1463.6,797.698z"/>
				<path style="fill:#FFFFFF;" d="M1386.132,797.511c0,0,36.719,65.06,49.121,84.773c1.642,2.61,5.516,2.339,6.813-0.458
					l40.698-87.706c1.455-2.585,0.104-6.65-2.179-6.558l-92.523,3.737C1385.98,791.384,1384.877,794.935,1386.132,797.511z"/>
			</g>
			<g>
				<path style="fill:#FFFFFF;" d="M1510.62,708.459l60.057-0.881l2.521,171.768c0.032,2.161-1.694,3.938-3.855,3.97l-51.971,0.763
					c-2.305,0.034-4.201-1.807-4.235-4.112L1510.62,708.459z"/>
				<path style="fill:#FFFFFF;" d="M1588.057,710.636c0,0-35.035-65.982-46.927-86.007c-1.574-2.651-5.454-2.48-6.823,0.282
					l-42.938,86.631c-1.521,2.547-0.275,6.646,2.01,6.612l92.589-1.359C1588.052,716.765,1589.246,713.244,1588.057,710.636z"/>
			</g>
		</g>
	</g>
</g>
</svg>
