<?xml version="1.0" encoding="utf-8"?>
<!-- Generator: Adobe Illustrator 27.5.0, SVG Export Plug-In . SVG Version: 6.00 Build 0)  -->
<svg version="1.1" xmlns="http://www.w3.org/2000/svg" xmlns:xlink="http://www.w3.org/1999/xlink" x="0px" y="0px"
	 viewBox="0 0 1870 1122" style="enable-background:new 0 0 1870 1122;" xml:space="preserve">
<g id="BG">
	<rect style="fill:#FFFFFF;" width="1870" height="1122"/>
</g>
<g id="Objects">
	<g>
		<path style="fill:#3F6FA4;" d="M315.009,104.276h27.762v141.161h-27.762V104.276z"/>
		<path style="fill:#3F6FA4;" d="M448.489,104.276h27.762v141.161h-32.359l-55.892-94.045v94.045h-27.762V104.276h32.542
			l55.708,94.231V104.276z"/>
		<path style="fill:#3F6FA4;" d="M560.83,132.583v112.854h-27.946V132.583h-39.161v-28.307h106.268v28.307H560.83z"/>
		<path style="fill:#3F6FA4;" d="M617.464,104.276h84.021v28.307h-56.259v28.12h56.259v28.307h-56.259v28.121h56.259v28.307h-84.021
			V104.276z"/>
		<path style="fill:#3F6FA4;" d="M836.623,123.83l-19.672,20.113c-7.354-7.077-17.466-11.36-28.314-11.36
			c-23.165,0-41.918,18.995-41.918,42.274c0,23.465,18.753,42.46,41.918,42.46c13.606,0,25.74-6.704,33.461-16.947h-33.461v-28.307
			h13.789h27.946h27.762c0,0.931,0.184,1.862,0.184,2.794c0,38.921-31.255,70.58-69.681,70.58c-38.425,0-69.681-31.659-69.681-70.58
			c0-38.922,31.255-70.581,69.681-70.581C807.207,104.276,824.121,111.725,836.623,123.83z"/>
		<path style="fill:#3F6FA4;" d="M875.791,104.276h41.735c23.166,0,41.735,18.995,41.735,42.46c0,16.015-8.825,30.169-21.878,37.246
			l27.395,61.456h-30.521l-25.188-56.427h-5.515v56.427h-27.762V104.276z M917.526,160.703c7.722,0,13.973-6.331,13.973-13.967
			c0-7.822-6.251-14.153-13.973-14.153h-13.973v28.12H917.526z"/>
		<path style="fill:#3F6FA4;" d="M1076.566,245.437l-14.158-39.48h-42.837l-14.158,39.48h-29.6l50.376-141.161h29.602
			l50.376,141.161H1076.566z M1040.897,145.805l-11.214,31.845h22.614L1040.897,145.805z"/>
		<path style="fill:#3F6FA4;" d="M1172.361,132.583v112.854h-27.945V132.583h-39.161v-28.307h106.268v28.307H1172.361z"/>
		<path style="fill:#3F6FA4;" d="M1228.995,104.276h27.762v141.161h-27.762V104.276z"/>
		<path style="fill:#3F6FA4;" d="M1413.587,174.857c0,38.921-31.255,70.58-69.681,70.58c-38.425,0-69.681-31.659-69.681-70.58
			c0-38.922,31.255-70.581,69.681-70.581C1382.331,104.276,1413.587,135.934,1413.587,174.857z M1301.986,174.857
			c0,23.465,18.753,42.46,41.919,42.46c22.981,0,41.736-18.995,41.736-42.46c0-23.279-18.755-42.274-41.736-42.274
			C1320.74,132.583,1301.986,151.578,1301.986,174.857z"/>
		<path style="fill:#3F6FA4;" d="M1519.31,104.276h27.762v141.161h-32.358l-55.892-94.045v94.045h-27.762V104.276h32.542
			l55.708,94.231V104.276z"/>
	</g>
	<g>
		<path style="fill:#3F6FA4;" d="M357.274,489.221l-27.592-30.357c-0.714-0.786-1.953-0.778-2.657,0.017l-0.784,0.885
			c-0.181,0.205-0.361,0.411-0.546,0.611c-1.066,1.15-2.029,2.112-2.947,2.942c-0.852,0.773-1.815,1.568-3.033,2.504
			c-0.219,0.169-0.447,0.335-0.678,0.503l-0.751,0.544c-0.862,0.624-0.99,1.859-0.274,2.647l27.493,30.245
			c0.553,0.571,1.393,0.873,2.426,0.873c0.267,0,0.511-0.019,0.696-0.042c1.795-0.213,3.795-1.187,5.455-2.646l0.291-0.249
			C357.428,494.915,358.73,491.112,357.274,489.221z M347.93,498.188L347.93,498.188L347.93,498.188L347.93,498.188z"/>
		<path style="fill:#3F6FA4;" d="M325.277,452.93c13.507-17.936,12.352-43.046-2.747-59.704
			c-8.875-9.792-21.566-15.408-34.818-15.408c-1.836,0-3.696,0.11-5.53,0.327c-9.706,1.155-18.674,5.245-25.932,11.827
			c-9.288,8.411-14.743,19.941-15.359,32.464c-0.616,12.522,3.681,24.532,12.099,33.818c8.874,9.788,21.559,15.402,34.803,15.402
			c1.835,0,3.694-0.11,5.527-0.327c6.874-0.816,13.332-3.079,19.192-6.725c2.423-1.505,4.698-3.22,6.76-5.092
			C321.446,457.547,323.467,455.332,325.277,452.93z M316.684,426.164c-0.377,7.648-3.708,14.691-9.38,19.83
			c-4.436,4.019-9.912,6.515-15.836,7.219c-9.196,1.089-18.468-2.402-24.641-9.214c-10.609-11.707-9.716-29.865,1.99-40.474
			c4.44-4.022,9.918-6.519,15.841-7.223c1.116-0.132,2.252-0.2,3.376-0.2c8.094,0,15.844,3.431,21.261,9.413
			C314.434,411.184,317.058,418.517,316.684,426.164z"/>
	</g>
	<path style="fill:#DAAA49;" d="M1401.786,986.556c-70.729,0-128.272-57.543-128.272-128.274
		c0-70.729,57.543-128.272,128.272-128.272c70.731,0,128.274,57.543,128.274,128.272
		C1530.059,929.014,1472.517,986.556,1401.786,986.556z M1401.786,755.159c-56.863,0-103.123,46.261-103.123,103.123
		c0,56.863,46.261,103.125,103.123,103.125c56.863,0,103.125-46.262,103.125-103.125
		C1504.911,801.42,1458.648,755.159,1401.786,755.159z"/>
	<path style="fill:#89BBE1;" d="M1583.005,487.69c-56.241,0-101.995-45.755-101.995-101.996c0-56.24,45.754-101.995,101.995-101.995
		S1685,329.453,1685,385.694C1685,441.935,1639.246,487.69,1583.005,487.69z M1583.005,308.847
		c-42.373,0-76.846,34.473-76.846,76.846c0,42.373,34.474,76.847,76.846,76.847s76.846-34.474,76.846-76.847
		C1659.851,343.32,1625.377,308.847,1583.005,308.847z"/>
	<path style="fill:#8BC3B6;" d="M302.929,560.593C237.902,560.593,185,507.69,185,442.664c0-65.026,52.902-117.929,117.929-117.929
		c65.026,0,117.928,52.902,117.928,117.929C420.857,507.69,367.954,560.593,302.929,560.593z M302.929,349.884
		c-51.159,0-92.78,41.621-92.78,92.78s41.621,92.78,92.78,92.78s92.779-41.621,92.779-92.78S354.087,349.884,302.929,349.884z"/>
	<path style="fill:#D16E52;" d="M465.834,1017.724c-47.923,0-86.911-38.988-86.911-86.911c0-47.923,38.988-86.911,86.911-86.911
		s86.911,38.988,86.911,86.911C552.745,978.736,513.757,1017.724,465.834,1017.724z M465.834,869.05
		c-34.056,0-61.762,27.706-61.762,61.762s27.706,61.762,61.762,61.762s61.762-27.706,61.762-61.762S499.89,869.05,465.834,869.05z"
		/>
	<path style="fill:#DAAA49;" d="M568.871,772.363c-23.578,0-42.761-19.182-42.761-42.761c0-23.578,19.182-42.761,42.761-42.761
		c23.579,0,42.761,19.183,42.761,42.761C611.632,753.181,592.449,772.363,568.871,772.363z M568.871,711.99
		c-9.712,0-17.612,7.901-17.612,17.612c0,9.712,7.9,17.612,17.612,17.612c9.712,0,17.612-7.901,17.612-17.612
		C586.483,719.891,578.582,711.99,568.871,711.99z"/>
	
		<ellipse transform="matrix(0.7071 -0.7071 0.7071 0.7071 -385.0427 352.994)" style="fill:#89BBE1;" cx="233.58" cy="641.285" rx="23.901" ry="23.901"/>
	
		<ellipse transform="matrix(0.1222 -0.9925 0.9925 0.1222 -138.1433 1705.434)" style="fill:#D16E52;" cx="895.057" cy="930.813" rx="23.901" ry="23.901"/>
	
		<ellipse transform="matrix(0.2298 -0.9732 0.9732 0.2298 554.2117 1943.5541)" style="fill:#DAAA49;" cx="1504.998" cy="621.639" rx="23.901" ry="23.901"/>
	
		<ellipse transform="matrix(0.5257 -0.8507 0.8507 0.5257 -432.7832 774.9073)" style="fill:#8BC3B6;" cx="478.547" cy="775.575" rx="23.901" ry="23.901"/>
	<path style="fill:#8BC3B6;" d="M1054.625,1003.76c-23.578,0-42.761-19.182-42.761-42.761c0-23.579,19.182-42.761,42.761-42.761
		c23.579,0,42.761,19.182,42.761,42.761C1097.386,984.578,1078.204,1003.76,1054.625,1003.76z M1054.625,943.387
		c-9.712,0-17.612,7.901-17.612,17.612c0,9.712,7.9,17.612,17.612,17.612s17.612-7.9,17.612-17.612
		C1072.237,951.288,1064.337,943.387,1054.625,943.387z"/>
	
		<rect x="1217.534" y="668.2" transform="matrix(0.5051 -0.863 0.863 0.5051 -41.6469 1434.5619)" style="fill:#DAAA49;" width="25.149" height="170.794"/>
	
		<rect x="1144.328" y="466.747" transform="matrix(0.9495 -0.3138 0.3138 0.9495 -83.5629 439.5887)" style="fill:#89BBE1;" width="358.305" height="25.149"/>
	
		<rect x="527.978" y="367.462" transform="matrix(0.2874 -0.9578 0.9578 0.2874 -102.1459 880.3399)" style="fill:#8BC3B6;" width="25.149" height="282.71"/>
	
		<rect x="593.855" y="692.792" transform="matrix(0.9775 -0.2111 0.2111 0.9775 -134.603 150.0476)" style="fill:#DAAA49;" width="83.025" height="25.148"/>
	
		<rect x="516.838" y="827.992" transform="matrix(0.8757 -0.4829 0.4829 0.8757 -327.7487 408.0507)" style="fill:#D16E52;" width="223.578" height="25.15"/>
	
		<rect x="1014.062" y="854.605" transform="matrix(0.9079 -0.4192 0.4192 0.9079 -280.418 512.7021)" style="fill:#8BC3B6;" width="25.15" height="79.886"/>
	<path style="fill:#3F6FA4;" d="M510.848,921.874c0-1.289-0.878-2.386-2.131-2.662l-9.7-2.172l5.33-8.411
		c0.69-1.087,0.534-2.483-0.375-3.39l-12.613-12.637c-0.888-0.887-2.359-1.041-3.393-0.375l-8.387,5.334l-2.168-9.715
		c-0.28-1.258-1.374-2.136-2.662-2.136h-17.834c-1.289,0-2.384,0.878-2.662,2.134l-2.168,9.719l-8.381-5.331
		c-1.052-0.678-2.514-0.517-3.4,0.37l-12.612,12.64c-0.904,0.909-1.058,2.3-0.371,3.389l5.329,8.41l-9.7,2.172
		c-1.257,0.28-2.134,1.375-2.134,2.665l0.004,17.87c0,1.289,0.878,2.386,2.132,2.664l9.699,2.172l-5.328,8.411
		c-0.689,1.086-0.536,2.479,0.372,3.39l12.611,12.632c0.881,0.891,2.343,1.048,3.395,0.379l8.388-5.335l2.168,9.717
		c0.276,1.241,1.395,2.141,2.662,2.141h0.001l17.834-0.004c1.291,0,2.386-0.88,2.662-2.134l2.168-9.719l8.389,5.337
		c1.056,0.671,2.519,0.504,3.393-0.378l12.604-12.634c0.898-0.892,1.058-2.319,0.38-3.393l-5.329-8.41l9.698-2.175
		c1.258-0.28,2.136-1.375,2.136-2.664L510.848,921.874z M465.766,950.742c-0.005,0-0.011,0-0.017,0l-0.254-0.012
		c-10.136-0.18-18.382-8.587-18.382-18.741c0-10.152,8.242-18.56,18.372-18.742c0.113-0.002,0.226-0.006,0.332-0.014l0.065-0.004
		c10.3,0.027,18.672,8.432,18.672,18.76C484.554,942.329,476.165,950.742,465.766,950.742z"/>
	<path style="fill:#D16E52;" d="M1154.424,578.767l28.362-2.008c-11.968-70.575-51.663-131.83-107.442-172.143l-14.881,24.141
		C1108.764,464.289,1143.297,517.5,1154.424,578.767z"/>
	<path style="fill:#8BC3B6;" d="M918.958,382.321c52.902,0,101.844,17.259,141.504,46.436l14.881-24.141
		c-44.016-31.813-98.046-50.587-156.386-50.587c-57.492,0-110.805,18.227-154.472,49.202l18.229,21.774
		C821.409,398.112,868.371,382.321,918.958,382.321z"/>
	<path style="fill:#DAAA49;" d="M782.715,425.004l-18.229-21.774c-28.498,20.214-52.865,45.874-71.623,75.428l24.511,14.18
		C734.485,466.159,756.724,443.068,782.715,425.004z"/>
	<path style="fill:#89BBE1;" d="M1182.785,576.759l-28.362,2.008c2.527,13.914,3.853,28.241,3.853,42.873
		c0,131.961-107.358,239.317-239.319,239.317S679.64,753.6,679.64,621.639c0-47.393,13.871-91.593,37.735-128.802l-24.511-14.18
		c-26.27,41.391-41.516,90.434-41.516,142.982c0,147.56,120.049,267.61,267.61,267.61c147.562,0,267.611-120.049,267.611-267.61
		C1186.569,606.347,1185.261,591.357,1182.785,576.759z"/>
	<g>
		<path style="fill:#3F6FA4;" d="M952.639,636.351l-56.977-20.906l-0.567-4.801l58.14,21.334L952.639,636.351z M950.068,655.202
			l-9.997,73.298h-31.077l-10.892-92.366L950.068,655.202z M870.714,736.75h107.781c2.231,0,4.423-0.202,6.568-0.563h1.64
			c5.495,0,9.966,4.472,9.966,10.356c0,5.493-4.47,9.966-9.966,9.966H859.886c-5.495,0-9.966-4.473-9.966-10.356
			c0-5.493,4.47-9.966,9.966-9.966h4.258C866.29,736.548,868.483,736.75,870.714,736.75z M958.131,813.259
			c0,7.725-6.285,14.007-14.007,14.007h-41.658c-7.723,0-14.007-6.282-14.007-14.007v-18.711h69.672V813.259z M986.703,785.689
			H859.886c-5.495,0-9.966-4.472-9.966-10.356c0-5.493,4.47-9.966,9.966-9.966h126.816c5.495,0,9.966,4.472,9.966,10.356
			C996.668,781.217,992.198,785.689,986.703,785.689z M1014.157,687.059c-7.444,6.001-12.558,14.302-14.402,23.378l-0.309,1.506
			c-1.702,8.375-8.268,14.755-16.357,16.556h-24.268l13.813-101.283c0.001-0.009,0.003-0.019,0.004-0.028l3.985-29.22
			c0.694-5.085-2.865-9.766-7.947-10.46c-5.092-0.712-9.768,2.862-10.46,7.947l-2.41,17.671l-63.151-23.172l-4.261-36.135
			c-0.601-5.098-5.232-8.786-10.315-8.138c-5.094,0.603-8.738,5.221-8.137,10.315L890.286,728.5H866.12
			c-8.09-1.801-14.658-8.18-16.36-16.552l-0.306-1.515c-1.848-9.081-6.947-17.368-14.356-23.337
			c-15.413-12.429-28.343-28.223-37.395-45.682c-24.199-46.68-23.387-99.646,2.168-141.685
			c25.306-41.617,70.693-65.49,124.523-65.49c66.304,0,121.527,41.518,137.419,103.311c3.189,12.397,4.751,25.247,4.64,38.197
			C1066.087,619.346,1046.534,660.959,1014.157,687.059z"/>
	</g>
	<g>
		<path style="fill:#3F6FA4;" d="M1365.922,815.185h-23.932c-4.223,0-7.646,3.423-7.646,7.646v74.567
			c0,4.223,3.423,7.646,7.646,7.646h23.932c4.223,0,7.646-3.423,7.646-7.646v-74.567
			C1373.569,818.608,1370.145,815.185,1365.922,815.185L1365.922,815.185z"/>
		<path style="fill:#3F6FA4;" d="M1411.922,845.853h-23.934c-4.223,0-7.646,3.423-7.646,7.646v43.899
			c0,4.223,3.423,7.646,7.646,7.646h23.934c4.223,0,7.646-3.423,7.646-7.646v-43.899
			C1419.568,849.276,1416.145,845.853,1411.922,845.853L1411.922,845.853z"/>
		<path style="fill:#3F6FA4;" d="M1457.922,784.517h-23.934c-4.223,0-7.646,3.423-7.646,7.646v105.234
			c0,4.223,3.423,7.646,7.646,7.646h23.934c4.223,0,7.646-3.423,7.646-7.646V792.163
			C1465.568,787.94,1462.145,784.517,1457.922,784.517L1457.922,784.517z"/>
		<path style="fill:#3F6FA4;" d="M1474.124,914.71v-0.071c0-1.949-1.58-3.529-3.529-3.529h-140.567c-1.949,0-3.529,1.58-3.529,3.529
			v0.071c0,1.949,1.58,3.529,3.529,3.529h140.567C1472.544,918.238,1474.124,916.659,1474.124,914.71z"/>
	</g>
	<path style="fill:#3F6FA4;" d="M1583.005,332.73c-33.854,0-61.397,21.633-61.397,48.223c0,26.589,27.543,48.221,61.397,48.221
		c1.772,0,3.599-0.066,5.44-0.197l4.821,11.659c0.373,0.9,1.168,1.53,2.091,1.68c0.164,0.032,0.331,0.047,0.496,0.047
		c0.796,0,1.556-0.339,2.082-0.928l17.577-19.56c18.096-8.866,28.89-24.148,28.89-40.923
		C1644.402,354.363,1616.859,332.73,1583.005,332.73z M1559.995,393.341c-4.046,0-7.339-3.292-7.339-7.34
		c0-4.047,3.292-7.34,7.339-7.34c4.047,0,7.339,3.292,7.339,7.34C1567.335,390.048,1564.042,393.341,1559.995,393.341z
		 M1583.169,393.341c-4.046,0-7.337-3.292-7.337-7.34c0-4.047,3.292-7.34,7.337-7.34c4.047,0,7.339,3.292,7.339,7.34
		C1590.508,390.048,1587.216,393.341,1583.169,393.341z M1605.276,393.341c-4.045,0-7.336-3.292-7.336-7.34
		c0-4.047,3.291-7.34,7.336-7.34c4.046,0,7.339,3.292,7.339,7.34C1612.614,390.048,1609.322,393.341,1605.276,393.341z"/>
</g>
</svg>
